<svg xmlns="http://www.w3.org/2000/svg" width="24.689" height="28.216" viewBox="0 0 24.689 28.216">
  <path id="Icon_awesome-discord" data-name="Icon awesome-discord" d="M16.38,13.4a1.444,1.444,0,1,1-1.439-1.566A1.5,1.5,0,0,1,16.38,13.4ZM9.791,11.837a1.572,1.572,0,0,0,0,3.132A1.5,1.5,0,0,0,11.23,13.4,1.494,1.494,0,0,0,9.791,11.837Zm14.9-8.93v25.31c-3.554-3.141-2.418-2.1-6.546-5.94l.748,2.61h-16A2.9,2.9,0,0,1,0,21.98V2.906A2.9,2.9,0,0,1,2.892,0H21.8A2.9,2.9,0,0,1,24.689,2.906ZM20.668,16.281a18.893,18.893,0,0,0-2.032-8.225,6.976,6.976,0,0,0-3.964-1.481l-.2.226a9.389,9.389,0,0,1,3.513,1.792A11.988,11.988,0,0,0,7.449,8.183c-.522.24-.832.409-.832.409a9.518,9.518,0,0,1,3.71-1.848l-.141-.169A6.976,6.976,0,0,0,6.222,8.056,18.893,18.893,0,0,0,4.19,16.281a5.115,5.115,0,0,0,4.3,2.144s.522-.635.945-1.171a4.388,4.388,0,0,1-2.469-1.665c.208.145.55.334.578.353a10.284,10.284,0,0,0,8.8.494,8.073,8.073,0,0,0,1.622-.832,4.452,4.452,0,0,1-2.554,1.679c.423.536.931,1.143.931,1.143A5.157,5.157,0,0,0,20.668,16.281Z" fill="#fff"/>
</svg>
