<svg xmlns="http://www.w3.org/2000/svg" width="30.82" height="25.057" viewBox="0 0 30.82 25.057">
  <path id="Icon_zocial-twitter" data-name="Icon zocial-twitter" d="M-4.738,21.866q.753.073,1.5.075a12.43,12.43,0,0,0,7.868-2.7A6.093,6.093,0,0,1,.951,17.981,6.162,6.162,0,0,1-1.28,14.849a5.958,5.958,0,0,0,1.178.1,6.193,6.193,0,0,0,1.679-.226,6.1,6.1,0,0,1-3.646-2.167A6.127,6.127,0,0,1-3.51,8.535V8.459a5.932,5.932,0,0,0,2.881.777A6.207,6.207,0,0,1-2.7,6.993,6.164,6.164,0,0,1-3.46,3.975,6.142,6.142,0,0,1-2.583.793,17.579,17.579,0,0,0,3.168,5.466a17.8,17.8,0,0,0,7.279,1.942,7.11,7.11,0,0,1-.176-1.453,6.08,6.08,0,0,1,1.854-4.46A6.111,6.111,0,0,1,16.611-.359a6.075,6.075,0,0,1,4.61,2.005A12.722,12.722,0,0,0,25.23.092,6.026,6.026,0,0,1,22.474,3.6a12.91,12.91,0,0,0,3.608-1A12.132,12.132,0,0,1,22.949,5.88v.828a18.132,18.132,0,0,1-.739,5.073,18.055,18.055,0,0,1-2.255,4.862,19.358,19.358,0,0,1-3.621,4.121,16.049,16.049,0,0,1-5.049,2.87A18.451,18.451,0,0,1,4.958,24.7,17.752,17.752,0,0,1-4.738,21.866Z" transform="translate(4.738 0.359)" fill="#fff"/>
</svg>
