<svg id="VOLUME" xmlns="http://www.w3.org/2000/svg" width="48.585" height="49.769" viewBox="0 0 48.585 49.769">
  <g id="Path_13" data-name="Path 13" transform="translate(0 6.152)" fill="#ed1b24">
    <path d="M 48.08494186401367 43.08488082885742 L 2.17766547203064 40.19295501708984 L 0.5186125636100769 -1.000276803970337 L 48.08494186401367 -5.601033687591553 L 48.08494186401367 43.08488082885742 Z" stroke="none"/>
    <path d="M 47.58494186401367 -5.050346374511719 L 1.037235260009766 -0.5481147766113281 L 2.659111022949219 39.72229766845703 L 47.58494186401367 42.55239486694336 L 47.58494186401367 -5.050346374511719 M 48.58494186401367 -6.151729583740234 L 48.58494186401367 43.61737060546875 L 1.696212768554688 40.66361999511719 L 0 -1.452449798583984 L 48.58494186401367 -6.151729583740234 Z" stroke="none" fill="#ed1b24"/>
  </g>
  <g id="speaker" transform="translate(11.402 -53.563)">
    <g id="Group_16" data-name="Group 16" transform="translate(0 68.851)">
      <path id="Path_16" data-name="Path 16" d="M13.444,68.851a1.175,1.175,0,0,0-.859.363l-6.359,4.07h-5a1.175,1.175,0,0,0-.859.363A1.173,1.173,0,0,0,0,74.506v7.333a1.175,1.175,0,0,0,.363.859,1.173,1.173,0,0,0,.859.363h5l6.359,4.07a1.222,1.222,0,0,0,2.081-.859v-16.2a1.239,1.239,0,0,0-1.222-1.222Z" transform="translate(0 -68.851)" fill="#fff" stroke="#000" stroke-width="1"/>
      <path id="Path_17" data-name="Path 17" d="M311.727,164.8a4.92,4.92,0,0,0,0-5.414,4.389,4.389,0,0,0-2.148-1.776,1.067,1.067,0,0,0-.477-.1,1.189,1.189,0,0,0-.859.353,1.165,1.165,0,0,0-.363.869,1.029,1.029,0,0,0,.229.678,2.234,2.234,0,0,0,.554.477q.324.2.649.439a1.929,1.929,0,0,1,.554.678,2.7,2.7,0,0,1,0,2.177,1.925,1.925,0,0,1-.554.678q-.325.239-.649.439a2.238,2.238,0,0,0-.554.478,1.028,1.028,0,0,0-.229.678,1.166,1.166,0,0,0,.363.869,1.188,1.188,0,0,0,.859.353,1.063,1.063,0,0,0,.478-.1A4.516,4.516,0,0,0,311.727,164.8Z" transform="translate(-291.426 -152.779)" fill="#fff" stroke="#000" stroke-width="1"/>
      <path id="Path_18" data-name="Path 18" d="M345.332,73.278a1.38,1.38,0,0,0-.5-.1,1.239,1.239,0,0,0-1.222,1.222,1.211,1.211,0,0,0,.745,1.127,11.95,11.95,0,0,1,1.451.84,7.3,7.3,0,0,1,0,11.8,11.882,11.882,0,0,1-1.451.84,1.212,1.212,0,0,0-.745,1.127,1.175,1.175,0,0,0,.363.86,1.2,1.2,0,0,0,.879.363,1.327,1.327,0,0,0,.477-.1,9.418,9.418,0,0,0,4.3-3.6,9.776,9.776,0,0,0,0-10.789A9.418,9.418,0,0,0,345.332,73.278Z" transform="translate(-325.251 -72.951)" fill="#fff" stroke="#000" stroke-width="1"/>
    </g>
  </g>
</svg>
