<svg xmlns="http://www.w3.org/2000/svg" width="33.403" height="25.057" viewBox="0 0 33.403 25.057">
  <path id="Icon_ionic-logo-youtube" data-name="Icon ionic-logo-youtube" d="M33.185,10.033a5.072,5.072,0,0,0-4.828-5.3c-3.615-.17-7.3-.235-11.066-.235H16.116c-3.758,0-7.451.065-11.066.235A5.083,5.083,0,0,0,.228,10.046C.065,12.369-.007,14.692,0,17.015S.065,21.66.222,23.99a5.089,5.089,0,0,0,4.822,5.318c3.8.176,7.693.254,11.653.248q5.951.02,11.653-.248a5.09,5.09,0,0,0,4.828-5.318c.157-2.329.228-4.652.222-6.982Q33.42,13.524,33.185,10.033ZM13.506,23.416V10.594L22.967,17Z" transform="translate(0 -4.5)" fill="#fff"/>
</svg>
