<svg id="say_hi" data-name="say hi" xmlns="http://www.w3.org/2000/svg" width="87" height="87" viewBox="0 0 87 87">
  <g id="crusel" transform="translate(-570 -365)">
    <g id="Ellipse_1" data-name="Ellipse 1" transform="translate(570 365)" fill="none" stroke="#ed1b24" stroke-width="3">
      <circle cx="43.5" cy="43.5" r="43.5" stroke="none"/>
      <circle cx="43.5" cy="43.5" r="42" fill="none"/>
    </g>
    <g id="hand" transform="translate(566.767 377.268) rotate(11)">
      <g id="Group_13" data-name="Group 13" transform="translate(32.525 0.631)">
        <path id="Path_8" data-name="Path 8" d="M74.033,14.255a2.745,2.745,0,0,0-1.974-.118,2.711,2.711,0,0,0-1.506,1.584L66.347,27.381l2.574-13.06a2.718,2.718,0,1,0-5.334-1.051l-2.778,14.1V10.218a2.718,2.718,0,0,0-5.437,0v17.7L52.086,13.235a2.718,2.718,0,1,0-5.306,1.187l3.154,14.1.7,3.5a1.109,1.109,0,0,1-1.487,1.251l-5.932-2.294a2.867,2.867,0,0,0-3.766,1.911,1.442,1.442,0,0,0,.591,1.59l11.8,7.3v6.263A1.262,1.262,0,0,0,53.1,49.3H64.092l1.934-.168a1.129,1.129,0,0,0,1.262-1.093V44l2.8-1.966a3.363,3.363,0,0,0,1.429-2.751V28.614L75.5,17.567A2.457,2.457,0,0,0,74.033,14.255Z" transform="translate(-39.394 -7.5)" fill="#ffb95a"/>
        <g id="Group_12" data-name="Group 12" transform="translate(24.698 6.425)">
          <path id="Path_9" data-name="Path 9" d="M342.988,84.057a2.709,2.709,0,0,0-1.973.05,2.718,2.718,0,0,1,1.505,3.429l-3.911,10.839a1.261,1.261,0,0,0-.075.428v10.444A3.363,3.363,0,0,1,337.105,112l-2.261,1.589a1.262,1.262,0,0,0-.536,1.032v3.388a1.262,1.262,0,0,1-1.262,1.262h2.1a1.262,1.262,0,0,0,1.262-1.262v-4.043l2.8-1.966a3.363,3.363,0,0,0,1.429-2.751V98.584l3.986-11.047a2.718,2.718,0,0,0-1.635-3.48Z" transform="translate(-333.047 -83.895)" fill="#c57a44"/>
        </g>
      </g>
      <g id="Group_14" data-name="Group 14" transform="translate(31.894)">
        <path id="Path_10" data-name="Path 10" d="M147.106,6.625a3.353,3.353,0,0,0-4.287,2.014l-1.39,3.852.969-4.916a3.349,3.349,0,1,0-6.572-1.3L134.3,14.034V3.349a3.349,3.349,0,0,0-6.7,0V15.342l-2.039-9.114a3.349,3.349,0,1,0-6.537,1.462l.456,2.039a.631.631,0,0,0,1.231-.275l-.456-2.039A2.088,2.088,0,0,1,124.33,6.5l3.285,14.685a.631.631,0,0,0,1.246-.138V3.349a2.088,2.088,0,0,1,4.175,0V20.5a.631.631,0,0,0,1.25.122l2.778-14.1a2.088,2.088,0,1,1,4.1.807l-2.574,13.06a.631.631,0,0,0,1.212.336l4.207-11.659a2.088,2.088,0,0,1,3.927,1.417L143.947,21.53a.629.629,0,0,0-.037.214V27.28a.631.631,0,1,0,1.262,0V21.855l3.948-10.943a3.353,3.353,0,0,0-2.014-4.287Z" transform="translate(-111.622)"/>
        <path id="Path_11" data-name="Path 11" d="M153.94,349.553a.631.631,0,0,0-.631.631v2.379a2.735,2.735,0,0,1-1.161,2.235l-2.8,1.966a.631.631,0,0,0-.268.516v4.043a.631.631,0,0,1-.631.631H135.358a.631.631,0,0,1-.631-.631V355.06a.631.631,0,0,0-.3-.536l-4.26-2.634a.631.631,0,0,0-.663,1.073l3.961,2.449v5.911a1.9,1.9,0,0,0,1.892,1.892h13.095a1.9,1.9,0,0,0,1.892-1.892v-3.715l2.529-1.778a4,4,0,0,0,1.7-3.267v-2.379a.631.631,0,0,0-.631-.631Z" transform="translate(-121.021 -320.154)"/>
        <path id="Path_12" data-name="Path 12" d="M38.7,157.089l-5.191-3.21a.808.808,0,0,1-.325-.89,2.236,2.236,0,0,1,2.932-1.493l5.932,2.294a1.746,1.746,0,0,0,.746.116.65.65,0,0,0,.093,0c.049,0,4.937-.357,7.351,2.82a.631.631,0,1,0,1-.763c-1.921-2.528-5.03-3.159-6.9-3.3a1.74,1.74,0,0,0,.036-.837l-.7-3.5,0-.014-2.1-9.377a.631.631,0,0,0-1.231.275l2.1,9.37.7,3.494a.478.478,0,0,1-.641.539l-5.938-2.3a3.5,3.5,0,0,0-4.6,2.331,2.067,2.067,0,0,0,.849,2.286l.017.011,5.2,3.216a.631.631,0,1,0,.664-1.073Z" transform="translate(-31.894 -126.799)"/>
      </g>
    </g>
  </g>
</svg>
