<svg xmlns="http://www.w3.org/2000/svg" viewBox="0 0 87 87" width="87" height="87">
	<style>
		tspan { white-space:pre }
		.shp0 { fill: none } 
		.shp1 { fill: none;stroke: #ed1b24;stroke-width: 3 } 
		.shp2 { fill: #ffb95a } 
		.shp3 { fill: #c57a44 } 
		.shp4 { fill: #000000 } 
	</style>
	<g id="crusel">
		<g id="Ellipse_1">
			<path id="Layer" class="shp0" d="M43.5 87C19.44 87 0 67.56 0 43.5C0 19.44 19.44 0 43.5 0C67.56 0 87 19.44 87 43.5C87 67.56 67.56 87 43.5 87Z" />
			<path id="Layer" class="shp1" d="M43.5 85.5C20.27 85.5 1.5 66.73 1.5 43.5C1.5 20.27 20.27 1.5 43.5 1.5C66.73 1.5 85.5 20.27 85.5 43.5C85.5 66.73 66.73 85.5 43.5 85.5Z" />
		</g>
		<g id="hand">
			<g id="Group_13">
				<path id="Path_8" class="shp2" d="M61.29 32.33C61.15 32.24 61 32.15 60.85 32.08C60.7 32.01 60.54 31.95 60.38 31.91C60.21 31.87 60.05 31.84 59.88 31.83C59.71 31.82 59.54 31.82 59.37 31.84C59.19 31.88 59.01 31.94 58.84 32.01C58.67 32.09 58.5 32.18 58.35 32.29C58.2 32.4 58.05 32.52 57.93 32.66C57.8 32.8 57.69 32.95 57.59 33.11L51.24 43.75L56.26 31.42C56.53 30.76 56.52 30.01 56.24 29.34C55.96 28.68 55.43 28.15 54.76 27.88C54.1 27.61 53.35 27.61 52.68 27.89C52.02 28.17 51.49 28.71 51.22 29.37L45.8 42.68L49.08 25.85C49.21 25.14 49.06 24.41 48.66 23.81C48.26 23.21 47.63 22.8 46.93 22.66C46.22 22.52 45.49 22.67 44.89 23.08C44.29 23.48 43.88 24.1 43.74 24.81L40.36 42.19L39.94 27.14C39.92 26.42 39.61 25.74 39.09 25.25C38.56 24.75 37.87 24.48 37.14 24.5C36.42 24.52 35.74 24.83 35.25 25.35C34.75 25.88 34.48 26.58 34.5 27.3L34.91 41.74L34.93 45.31C34.93 45.51 34.88 45.7 34.78 45.87C34.68 46.05 34.53 46.19 34.36 46.28C34.18 46.38 33.99 46.43 33.79 46.42C33.59 46.42 33.4 46.36 33.23 46.25L27.84 42.87C27.51 42.66 27.13 42.53 26.74 42.47C26.34 42.42 25.94 42.45 25.56 42.56C25.18 42.67 24.82 42.85 24.52 43.11C24.21 43.36 23.96 43.67 23.78 44.03C23.72 44.16 23.67 44.31 23.65 44.46C23.62 44.61 23.62 44.76 23.65 44.91C23.67 45.06 23.72 45.2 23.79 45.34C23.86 45.47 23.95 45.59 24.06 45.7L34.25 55.12L33.06 61.27C33.02 61.43 33.03 61.6 33.06 61.76C33.09 61.92 33.16 62.07 33.25 62.21C33.34 62.35 33.46 62.46 33.6 62.55C33.74 62.65 33.89 62.71 34.05 62.74L44.84 64.84L46.77 65.04C46.92 65.09 47.08 65.11 47.24 65.09C47.39 65.07 47.54 65.02 47.68 64.95C47.82 64.87 47.94 64.76 48.03 64.63C48.12 64.51 48.19 64.36 48.22 64.21L48.99 60.25L52.11 58.85C52.36 58.74 52.59 58.6 52.8 58.44C53.02 58.27 53.21 58.08 53.37 57.87C53.54 57.66 53.68 57.43 53.8 57.19C53.91 56.94 53.99 56.69 54.04 56.42L56.08 45.95L62.1 35.86C62.29 35.58 62.42 35.27 62.49 34.93C62.55 34.6 62.54 34.25 62.47 33.92C62.39 33.59 62.25 33.28 62.04 33C61.84 32.73 61.58 32.5 61.29 32.33L61.29 32.33Z" />
				<g id="Group_12">
					<path id="Path_9" class="shp3" d="M61.32 32.17C61.18 32.08 61.02 32.01 60.86 31.95C60.71 31.89 60.54 31.85 60.38 31.82C60.21 31.79 60.04 31.78 59.87 31.78C59.71 31.79 59.54 31.81 59.37 31.84C59.66 32.03 59.91 32.28 60.1 32.56C60.3 32.85 60.44 33.17 60.51 33.5C60.59 33.84 60.6 34.19 60.55 34.53C60.49 34.87 60.37 35.2 60.2 35.49L54.29 45.39C54.27 45.42 54.25 45.45 54.24 45.48C54.22 45.52 54.21 45.55 54.19 45.58C54.18 45.62 54.17 45.65 54.16 45.69C54.15 45.72 54.14 45.76 54.13 45.79L52.14 56.05C52.09 56.31 52.01 56.57 51.89 56.81C51.78 57.06 51.64 57.29 51.47 57.5C51.31 57.71 51.11 57.9 50.9 58.06C50.69 58.23 50.46 58.37 50.21 58.48L47.69 59.6C47.6 59.65 47.51 59.7 47.43 59.76C47.35 59.82 47.28 59.89 47.22 59.97C47.16 60.05 47.1 60.14 47.06 60.23C47.02 60.32 46.99 60.42 46.97 60.52L46.32 63.84C46.29 64 46.23 64.16 46.13 64.3C46.04 64.43 45.93 64.55 45.79 64.65C45.65 64.74 45.5 64.8 45.33 64.84C45.17 64.87 45 64.87 44.84 64.84L46.9 65.24C47.07 65.27 47.23 65.27 47.4 65.24C47.56 65.2 47.71 65.14 47.85 65.05C47.99 64.95 48.1 64.84 48.2 64.7C48.29 64.56 48.35 64.4 48.38 64.24L49.15 60.27L52.28 58.88C52.52 58.77 52.75 58.63 52.97 58.46C53.18 58.3 53.37 58.11 53.54 57.9C53.7 57.69 53.85 57.46 53.96 57.21C54.07 56.97 54.15 56.71 54.21 56.45L56.24 45.98L62.26 35.9C62.44 35.59 62.56 35.25 62.62 34.9C62.67 34.54 62.65 34.18 62.56 33.84C62.48 33.49 62.32 33.17 62.11 32.88C61.89 32.59 61.63 32.35 61.32 32.17L61.32 32.17Z" />
				</g>
			</g>
			<g id="Group_14">
				<path id="Path_10" class="shp4" d="M61.64 31.63C61.27 31.4 60.85 31.25 60.41 31.19C59.98 31.13 59.53 31.15 59.11 31.26C58.68 31.37 58.28 31.56 57.93 31.82C57.57 32.08 57.28 32.41 57.05 32.79L54.95 36.3L56.84 31.66C57.18 30.84 57.17 29.92 56.83 29.1C56.48 28.28 55.83 27.63 55 27.3C54.18 26.96 53.26 26.97 52.44 27.31C51.62 27.65 50.97 28.31 50.64 29.13L47.66 36.46L49.7 25.97C49.87 25.1 49.68 24.19 49.19 23.46C48.69 22.72 47.92 22.21 47.05 22.04C46.18 21.87 45.27 22.06 44.54 22.55C43.8 23.05 43.29 23.82 43.12 24.69L40.83 36.46L40.57 27.13C40.54 26.24 40.17 25.4 39.52 24.79C38.88 24.18 38.02 23.85 37.13 23.87C36.24 23.9 35.4 24.27 34.79 24.92C34.18 25.57 33.85 26.43 33.87 27.31L33.93 29.4C33.94 29.57 34.02 29.72 34.14 29.83C34.26 29.94 34.42 30 34.58 30C34.74 29.99 34.9 29.92 35.01 29.81C35.13 29.69 35.19 29.53 35.19 29.37L35.13 27.28C35.12 26.73 35.32 26.19 35.7 25.79C36.08 25.38 36.61 25.15 37.16 25.13C37.72 25.12 38.25 25.32 38.66 25.7C39.06 26.08 39.29 26.61 39.31 27.16L39.73 42.2C39.74 42.36 39.8 42.5 39.91 42.62C40.01 42.73 40.16 42.8 40.31 42.81C40.47 42.82 40.62 42.78 40.74 42.68C40.87 42.59 40.95 42.46 40.98 42.3L44.36 24.93C44.47 24.4 44.79 23.93 45.25 23.63C45.71 23.33 46.26 23.22 46.8 23.32C47.33 23.43 47.81 23.74 48.12 24.19C48.43 24.64 48.55 25.19 48.46 25.73L45.18 42.56C45.15 42.72 45.18 42.88 45.26 43.01C45.35 43.14 45.47 43.24 45.62 43.29C45.77 43.33 45.94 43.32 46.08 43.25C46.22 43.18 46.33 43.07 46.39 42.92L51.81 29.61C52.02 29.1 52.42 28.69 52.93 28.47C53.44 28.26 54.01 28.25 54.53 28.46C55.04 28.67 55.45 29.08 55.66 29.59C55.88 30.1 55.88 30.67 55.67 31.18L50.66 43.51C50.6 43.66 50.6 43.82 50.65 43.97C50.71 44.12 50.82 44.24 50.96 44.31C51.1 44.38 51.27 44.4 51.42 44.35C51.57 44.31 51.7 44.21 51.78 44.07L58.14 33.43C58.43 32.97 58.89 32.64 59.42 32.51C59.95 32.39 60.51 32.47 60.97 32.75C61.44 33.03 61.78 33.48 61.92 34.01C62.06 34.54 61.99 35.1 61.72 35.57L55.7 45.66C55.69 45.67 55.68 45.69 55.67 45.7C55.66 45.72 55.66 45.74 55.65 45.75C55.64 45.77 55.64 45.79 55.63 45.81C55.63 45.82 55.62 45.84 55.62 45.86L54.56 51.29C54.53 51.46 54.57 51.63 54.66 51.77C54.75 51.91 54.9 52 55.06 52.03C55.23 52.07 55.4 52.03 55.54 51.94C55.68 51.84 55.77 51.7 55.8 51.53L56.84 46.21L62.8 36.22C63.03 35.84 63.18 35.42 63.24 34.99C63.3 34.55 63.28 34.11 63.17 33.68C63.06 33.26 62.87 32.86 62.61 32.5C62.35 32.15 62.02 31.85 61.64 31.63L61.64 31.63Z" />
				<path id="Path_11" class="shp4" d="M54.78 53.49C54.7 53.48 54.61 53.48 54.53 53.49C54.45 53.51 54.38 53.54 54.31 53.59C54.24 53.64 54.18 53.7 54.13 53.76C54.09 53.83 54.06 53.91 54.04 53.99L53.59 56.33C53.54 56.54 53.48 56.75 53.39 56.95C53.29 57.15 53.18 57.33 53.04 57.51C52.91 57.68 52.75 57.83 52.58 57.96C52.41 58.1 52.22 58.21 52.02 58.3L48.9 59.7C48.85 59.72 48.81 59.74 48.77 59.77C48.73 59.8 48.69 59.84 48.66 59.88C48.63 59.92 48.6 59.96 48.58 60.01C48.56 60.05 48.54 60.1 48.53 60.15L47.76 64.12C47.75 64.2 47.72 64.28 47.67 64.35C47.62 64.42 47.57 64.48 47.5 64.52C47.43 64.57 47.35 64.6 47.27 64.62C47.19 64.63 47.1 64.63 47.02 64.62L34.17 62.12C34.09 62.11 34.01 62.07 33.94 62.03C33.88 61.98 33.82 61.92 33.77 61.85C33.72 61.79 33.69 61.71 33.67 61.63C33.66 61.55 33.66 61.46 33.67 61.38L34.87 55.23C34.88 55.18 34.88 55.13 34.88 55.07C34.88 55.02 34.87 54.97 34.85 54.92C34.83 54.87 34.81 54.82 34.78 54.77C34.75 54.73 34.72 54.69 34.68 54.65L31 51.25C30.87 51.14 30.71 51.09 30.55 51.1C30.39 51.11 30.23 51.18 30.12 51.3C30.01 51.42 29.95 51.58 29.95 51.74C29.96 51.91 30.03 52.06 30.14 52.18L33.56 55.34L32.43 61.14C32.39 61.38 32.39 61.64 32.44 61.88C32.49 62.12 32.59 62.35 32.73 62.56C32.87 62.76 33.04 62.94 33.25 63.08C33.46 63.21 33.69 63.31 33.93 63.36L46.79 65.86C47.03 65.9 47.28 65.9 47.52 65.85C47.77 65.8 48 65.7 48.2 65.57C48.41 65.43 48.59 65.25 48.72 65.04C48.86 64.84 48.96 64.6 49 64.36L49.71 60.71L52.53 59.45C52.83 59.32 53.1 59.16 53.35 58.96C53.61 58.77 53.83 58.54 54.03 58.29C54.23 58.04 54.4 57.77 54.53 57.48C54.67 57.19 54.77 56.88 54.83 56.57L55.28 54.23C55.3 54.15 55.3 54.07 55.28 53.99C55.26 53.91 55.23 53.83 55.18 53.76C55.14 53.69 55.08 53.63 55.01 53.59C54.94 53.54 54.86 53.51 54.78 53.49L54.78 53.49Z" />
				<path id="Path_12" class="shp4" d="M28.98 49.39L24.49 45.24C24.43 45.18 24.38 45.12 24.35 45.04C24.31 44.96 24.28 44.88 24.27 44.8C24.25 44.72 24.25 44.63 24.27 44.55C24.28 44.47 24.31 44.38 24.34 44.31C24.48 44.03 24.68 43.79 24.92 43.59C25.15 43.39 25.43 43.25 25.73 43.16C26.02 43.08 26.34 43.05 26.64 43.1C26.95 43.14 27.24 43.24 27.51 43.4L32.89 46.79C32.95 46.82 33 46.85 33.06 46.88C33.12 46.91 33.17 46.93 33.23 46.95C33.29 46.97 33.35 46.99 33.42 47.01C33.48 47.02 33.54 47.03 33.6 47.04C33.61 47.04 33.62 47.05 33.63 47.05C33.63 47.05 33.64 47.05 33.65 47.05C33.66 47.05 33.66 47.06 33.67 47.06C33.68 47.06 33.69 47.06 33.69 47.06C33.74 47.07 38.61 47.65 40.37 51.23C40.44 51.39 40.57 51.52 40.73 51.59C40.9 51.65 41.08 51.64 41.24 51.56C41.4 51.49 41.51 51.34 41.56 51.18C41.61 51.01 41.59 50.82 41.5 50.67C40.1 47.82 37.16 46.61 35.36 46.12C35.39 46.05 35.42 45.99 35.44 45.92C35.47 45.86 35.49 45.79 35.5 45.72C35.52 45.65 35.53 45.58 35.54 45.51C35.55 45.44 35.55 45.37 35.55 45.3L35.53 41.73L35.53 41.72L35.26 32.11C35.25 31.95 35.18 31.8 35.06 31.69C34.94 31.58 34.78 31.52 34.61 31.52C34.45 31.53 34.29 31.59 34.18 31.71C34.07 31.83 34 31.98 34 32.15L34.27 41.75L34.29 45.31C34.29 45.4 34.27 45.48 34.23 45.55C34.19 45.63 34.12 45.69 34.05 45.73C33.97 45.77 33.89 45.79 33.8 45.79C33.72 45.79 33.64 45.76 33.56 45.72L28.17 42.33C27.76 42.07 27.3 41.91 26.82 41.84C26.34 41.78 25.85 41.81 25.38 41.94C24.92 42.07 24.48 42.3 24.11 42.61C23.74 42.92 23.43 43.3 23.21 43.74C23.11 43.93 23.05 44.14 23.01 44.36C22.98 44.57 22.98 44.79 23.02 45C23.05 45.22 23.12 45.43 23.22 45.62C23.32 45.81 23.45 45.99 23.61 46.14L23.62 46.16L28.11 50.31C28.24 50.42 28.4 50.49 28.57 50.48C28.74 50.48 28.9 50.4 29.01 50.28C29.13 50.15 29.19 49.99 29.18 49.82C29.17 49.65 29.1 49.49 28.97 49.38L28.98 49.39Z" />
			</g>
		</g>
	</g>
</svg>