<?xml version="1.0" standalone="no"?>
<!DOCTYPE svg PUBLIC "-//W3C//DTD SVG 1.1//EN" "http://www.w3.org/Graphics/SVG/1.1/DTD/svg11.dtd" >
<svg xmlns="http://www.w3.org/2000/svg" xmlns:xlink="http://www.w3.org/1999/xlink" version="1.1">
<metadata>
Created by FontForge 20190801 at Mon Oct 20 01:21:04 2014
 By Jimmy Wärting
Copyright (c) 2013 by dcoxy Medina Gregory. All rights reserved. 
You need my agreement for every diffusions, reproduction and commercial use. 
Thank you to contact me before: dcoxymg@gmail.com
</metadata>
<defs>
<font id="BirdyGame" horiz-adv-x="568" >
  <font-face 
    font-family="Birdy Game"
    font-weight="400"
    font-stretch="normal"
    units-per-em="1000"
    panose-1="2 0 0 0 0 0 0 0 0 0"
    ascent="800"
    descent="-200"
    x-height="418.5"
    cap-height="698.5"
    bbox="-251.111 -250.53 879.091 846.105"
    underline-thickness="50"
    underline-position="-100"
    unicode-range="U+0020-2212"
  />
<missing-glyph horiz-adv-x="200" 
 />
    <glyph glyph-name=".notdef" horiz-adv-x="200" 
 />
    <glyph glyph-name=".null" horiz-adv-x="0" 
 />
    <glyph glyph-name="nonmarkingreturn" horiz-adv-x="200" 
 />
    <glyph glyph-name="space" unicode=" " horiz-adv-x="200" 
 />
    <glyph glyph-name="space" unicode="&#xa0;" horiz-adv-x="200" 
 />
    <glyph glyph-name="D" unicode="D" horiz-adv-x="570" 
d="M105 703q100 5 170 -4.5t116 -32t72 -57t38.5 -79t15.5 -98.5t3 -115q0 -103 -20.5 -166t-68.5 -97t-127.5 -45t-197.5 -9q-17 0 -35 9.5t-33 26.5t-24.5 42t-10.5 57q0 19 -0.5 55t-1 81t-1 94t-0.5 94v81.5t1 56.5q2 51 32 76t72 30zM221 156q35 11 58.5 35.5t34.5 54
t10.5 61t-11.5 57.5t-33 42.5t-53 16.5q-2 0 -3 -0.5t-3 -0.5v-266z" />
    <glyph glyph-name="E" unicode="E" horiz-adv-x="570" 
d="M421 188q33 1 54.5 -13t31.5 -34.5t9.5 -45t-11 -46t-31 -35.5t-49.5 -14q-26 0 -71 -0.5t-92 -0.5h-88t-60 1q-32 1 -53.5 17.5t-35 41.5t-19.5 56t-6 62v356q0 31 6 61t19.5 54.5t35 40t53.5 17.5q19 1 60.5 1h88.5h91.5h70.5q30 0 51.5 -21t32.5 -52t11.5 -67.5
t-9.5 -68t-31.5 -52.5t-54.5 -21h-193q-27 0 -35 -9.5t-7 -34.5h69q20 0 42 1q15 0 24.5 -11t13.5 -28.5t3.5 -37.5t-6 -37.5t-15.5 -29.5t-24 -13q-10 -1 -24.5 -1.5t-30 -0.5t-30 0.5t-23.5 0.5q0 -3 -1 -9t-0.5 -12t3 -10.5t9.5 -4.5q43 0 102.5 -1t118.5 1z" />
    <glyph glyph-name="F" unicode="F" horiz-adv-x="582" 
d="M438 708q33 0 54.5 -20.5t32 -51.5t10 -67.5t-13 -68t-36.5 -52.5t-60 -21q-40 0 -76 0.5t-74 -1.5q-19 -2 -29 -11t-14 -23.5t-3.5 -33t1.5 -37.5q17 1 34 1t31 1q16 0 29 1q16 3 26.5 -8.5t15.5 -31t4.5 -42.5t-5.5 -44t-15.5 -36t-25.5 -17q-29 -4 -52 -5t-42 0
q-1 -17 -1 -31.5v-25.5q0 -25 -16.5 -43t-42 -28t-54.5 -11.5t-54.5 6t-42.5 24.5t-17 45q-1 67 -1 141v140.5v117.5t-1 72q-1 31 4 59.5t18 50.5t34.5 35.5t53.5 15.5q19 1 61 1h91t97 -0.5t79 -0.5z" />
    <glyph glyph-name="G" unicode="G" horiz-adv-x="575" 
d="M502 248q18 -5 22.5 -22.5t0.5 -37t-14.5 -36t-22.5 -19.5q-11 -25 -29.5 -49.5t-46 -44t-66 -30.5t-87.5 -9q-64 2 -114 29t-83 75t-49 115t-12 150q4 95 30.5 161.5t66 107t88.5 56.5t98.5 10.5t95 -31t79 -68.5t50 -102t8.5 -132q-3 -26 -17.5 -41.5t-35 -23.5
t-43.5 -8.5t-42 5t-31.5 16t-11.5 24.5q4 80 -64 80q-26 0 -41 -12t-23.5 -32t-11 -47.5t-2.5 -58.5q0 -55 15.5 -86t36.5 -41.5t43 -2t36 31.5q-14 4 -25.5 7t-19.5 5q-13 4 -21 22.5t-7.5 38t11.5 34.5t35 12q28 -3 59 -9t59 -13t51 -14t35 -10z" />
    <glyph glyph-name="H" unicode="H" horiz-adv-x="574" 
d="M524 599v-42v-73v-90.5v-95v-86v-62.5q0 -44 -15 -76t-37.5 -50.5t-49.5 -22.5t-51.5 9t-42.5 44t-22 82q0 4 -0.5 8.5t-0.5 9.5q-24 -2 -49.5 -3t-45.5 2q0 -1 -0.5 -1.5t-0.5 -1.5q-4 -45 -20.5 -77.5t-39 -50.5t-48 -20.5t-47 11t-36 44t-15.5 79.5q0 19 -0.5 55.5
t-1 81t-1 94t-0.5 94.5v81.5t1 56.5q1 39 18 64.5t41.5 36.5t52.5 8t52.5 -20t40 -48.5t15.5 -76.5q0 -9 0.5 -29.5t0.5 -49v-62.5t-1 -69q17 -1 36.5 -1.5t36.5 -1.5q-2 39 -3.5 77t-2.5 71t-1 59.5v41.5q2 39 19.5 63t43.5 34.5t56 8.5t56 -15t43.5 -36.5t18.5 -54.5z" />
    <glyph glyph-name="I" unicode="I" horiz-adv-x="271" 
d="M1 595q1 39 18 62.5t41.5 33.5t52.5 7.5t52 -15.5t40 -35.5t16 -52.5v-449q0 -44 -16 -75.5t-40 -49t-52 -21t-52 10t-40.5 43.5t-17.5 79q0 19 -0.5 55t-1 81t-1 94t-0.5 94v81.5t1 56.5z" />
    <glyph glyph-name="J" unicode="J" horiz-adv-x="599" 
d="M469 705q19 0 35 -19.5t27 -49.5t15.5 -65t1 -66.5t-16.5 -53.5t-37 -26q1 -11 1.5 -20.5t0.5 -16.5q4 -87 -9.5 -158t-43.5 -121t-77.5 -78t-111.5 -31q-67 -3 -113.5 17.5t-76 58.5t-44.5 90t-19 113q-2 26 12 45t36 30t48.5 13.5t49 -3.5t38.5 -21t17 -39
q2 -58 12.5 -94t22 -42t20.5 21.5t9 98.5q0 24 -1 59.5t-3 72.5q-56 0 -106 1t-81 3q-22 1 -39 22.5t-26 53t-10 67.5t8.5 67t29.5 51.5t53 20.5q62 0 114 -0.5t97 -1t86 -0.5t81 1z" />
    <glyph glyph-name="K" unicode="K" horiz-adv-x="574" 
d="M477 230q34 -25 43 -60.5t-1.5 -69.5t-36 -61t-60.5 -35t-75.5 9t-79.5 72q-13 18 -24 34.5t-22 31.5v-5q0 -44 -16 -75.5t-40 -49t-52 -21t-52 10t-40.5 43.5t-17.5 79q0 19 -0.5 55t-1 81t-1 94t-0.5 94v81.5t1 56.5q1 39 18 63.5t41.5 35t52.5 9t52 -14.5t40 -37
t16 -56v-22q17 15 34.5 30.5t33.5 29.5t29 26t22 20q28 26 58.5 24t56.5 -22.5t44 -54t20 -71t-15.5 -74t-61.5 -61.5q-40 -23 -70 -40t-60 -32q19 -13 42 -29.5l46 -33t43 -31t34 -24.5z" />
    <glyph glyph-name="L" unicode="L" horiz-adv-x="574" 
d="M421 237q31 4 53.5 -11t35 -39.5t15 -55t-5.5 -57.5t-27 -46.5t-49 -22.5q-17 -2 -57 -3t-89 -1.5t-99.5 0t-89.5 2.5q-29 -1 -48.5 11.5t-32 32t-18 43t-5.5 45.5q0 19 -0.5 53t-1 75.5t-1.5 87.5t-1 87.5v76t1 54.5q2 45 21.5 75t47.5 45t60.5 16.5t60 -10.5
t45.5 -36.5t18 -60.5q0 -14 -3.5 -57.5t-8.5 -100t-10 -117.5t-8 -109q50 5 96 10.5t101 12.5z" />
    <glyph glyph-name="M" unicode="M" horiz-adv-x="619" 
d="M570 597q1 -20 1 -56.5v-81.5t-1 -94t-1.5 -94t-1 -81t-0.5 -55q-1 -44 -16.5 -73.5t-39 -44.5t-50.5 -16t-50.5 12.5t-39.5 40t-16 66.5q-1 16 -1 40t-1 53q-9 -19 -28 -27.5t-40 -7t-39.5 13.5t-26.5 34q-2 -45 -4 -81t-6 -58q-4 -25 -21 -45t-40 -31t-48.5 -11
t-47 13.5t-36 43t-15.5 78.5q0 19 -0.5 55t-0.5 81t-0.5 94t0 94t0.5 81.5t1 56.5q1 35 14.5 58.5t34 36.5t45.5 14.5t48 -8.5q21 -14 44 -47t43.5 -70t36 -69t23.5 -44q11 21 24 54.5t28.5 67.5t33 63t37.5 42q24 12 51 12t50.5 -12.5t39 -37t16.5 -60.5z" />
    <glyph glyph-name="N" unicode="N" horiz-adv-x="574" 
d="M287 600q1 39 19.5 62.5t44.5 33.5t56.5 7t56.5 -16t43 -35.5t17 -51.5q0 -11 -1 -41t-2.5 -71t-3 -88.5t-3.5 -94t-3.5 -87l-2.5 -67.5q-3 -63 -23 -101t-50.5 -47t-69 13.5t-77.5 81.5q-12 17 -30.5 48t-41.5 69q-1 -20 -3 -36t-4 -28q-7 -45 -25 -77.5t-40.5 -50.5
t-47 -20.5t-45 11t-34 44t-13.5 79.5q0 19 -0.5 55.5t-1 81t-1.5 94t-1 94.5v81.5t1 56.5q1 45 25.5 71t57.5 32.5t66 -7.5t53 -49q4 -7 12.5 -23t20.5 -38.5t27 -50t32 -57.5q-4 41 -6 73t-2 49z" />
    <glyph glyph-name="O" unicode="O" 
d="M265 704q63 0 107 -14.5t72 -40.5t43.5 -61t22.5 -76t8 -86.5t1 -91.5q0 -95 -20.5 -159t-55.5 -103t-82 -55.5t-101 -16.5t-101.5 18.5t-82.5 59t-55.5 104t-20.5 152.5q0 69 7.5 135.5t34.5 118.5t79.5 84t143.5 32zM266 153q29 0 47.5 12.5t28.5 33t13.5 47t3.5 55.5
q0 21 -3 43t-13 40t-27.5 30t-46.5 12q-27 0 -45 -12.5t-28.5 -31.5t-15 -41.5t-5.5 -43.5t3 -46.5t14 -47t28 -36t46 -14.5z" />
    <glyph glyph-name="P" unicode="P" horiz-adv-x="574" 
d="M525 394q0 -62 -12.5 -111.5t-46 -84t-93 -53.5t-153.5 -22q-4 -38 -22 -65.5t-42 -42t-51 -15.5t-50 13t-38 43.5t-16 76.5q0 19 -0.5 55t-0.5 81t-0.5 94t0 94t0.5 81.5t1 56.5q1 26 8.5 45t20 31.5t28.5 19t34 8.5v1q104 9 184.5 -3t136 -48.5t84 -99t28.5 -155.5z
M221 292q63 8 89 29t23.5 43t-30 39t-72.5 17h-10v-128z" />
    <glyph glyph-name="Q" unicode="Q" horiz-adv-x="572" 
d="M494 161q20 -15 24 -36t-3 -43t-22.5 -41.5t-34.5 -30.5t-39.5 -10.5t-36.5 18.5q-4 4 -6 7q-26 -13 -55 -18t-61 -5q-54 0 -101.5 18.5t-82.5 59t-55.5 103.5t-20.5 153q0 69 7.5 135.5t34.5 118.5t79.5 84t143.5 32q63 0 107 -14.5t72 -40.5t43.5 -61t22.5 -76t8 -86.5
t1 -91.5q0 -54 -6.5 -97t-18.5 -78zM175 298q-1 -21 3 -46t14 -46.5t28 -36t45 -14.5q-8 11 -13 20t-7 16q-6 21 -0.5 37t18 25.5t29 11.5t31.5 -5q6 -2 14 -6.5t18 -9.5q2 14 3 28.5t1 29.5q0 21 -3 43t-13 40.5t-27.5 30t-46.5 11.5q-27 0 -45 -12.5t-28.5 -31t-15 -41.5
t-5.5 -44z" />
    <glyph glyph-name="R" unicode="R" horiz-adv-x="576" 
d="M497 205q20 -8 26 -32.5t1.5 -54t-20.5 -58.5t-40.5 -45t-57.5 -13.5t-73 34.5q-35 29 -63.5 51.5t-50.5 41.5q-3 -40 -20.5 -68.5t-41 -43.5t-50.5 -16.5t-50 12t-38.5 43.5t-16.5 77q0 19 -0.5 54t-0.5 79t-0.5 91.5t-0.5 91.5v79.5t1 55.5q1 32 7 53t19.5 34.5
t34.5 20.5t53 11q25 2 65 2.5t85 -4.5t90.5 -17.5t82 -36.5t59.5 -62.5t23 -94.5q0 -47 -6.5 -85t-23.5 -68t-46 -52t-75 -35q39 -13 74.5 -25t53.5 -20zM220 333q50 3 74.5 17t24.5 29.5t-23 28t-66 12.5h-10v-87z" />
    <glyph glyph-name="S" unicode="S" horiz-adv-x="572" 
d="M227 433q27 -5 60.5 -10t66.5 -14t64 -24t54 -40.5t35.5 -62.5t9.5 -91q-4 -63 -32.5 -102.5t-71 -60t-94 -25.5t-101 -1t-92 14.5t-66.5 21.5t-38 32.5t-19 47t-1.5 51.5t14.5 45t28 27.5t40 -0.5q16 -6 39 -14.5t48 -16.5t50.5 -15t46.5 -11q22 -4 34 3.5t13 18.5
t-9.5 22.5t-33.5 16.5q-82 16 -134 38t-81.5 50t-41.5 63t-13 79q-2 67 22 116t70.5 77.5t113 36.5t150.5 -6q63 -10 100 -37t52.5 -60.5t13 -68.5t-19.5 -62t-45 -41t-63 -5q-17 4 -39.5 8.5t-45 8t-43 7t-33.5 6.5q-11 3 -19 0.5t-10 -6.5t2.5 -8.5t18.5 -7.5z" />
    <glyph glyph-name="T" unicode="T" horiz-adv-x="605" 
d="M478 706q25 0 42 -20.5t25.5 -52t8.5 -68t-8 -67.5t-24 -52t-41 -21q-13 0 -36.5 -0.5t-61.5 -1.5q2 -37 4 -80.5t3.5 -86.5t2 -82t-0.5 -67q-1 -41 -17 -65.5t-39 -34.5t-49.5 -7t-49.5 16.5t-38.5 37t-15.5 53.5q-1 23 0 59.5t2 79t2 88.5t1 88q-34 1 -63.5 1.5
t-49.5 1.5q-22 1 -39 22.5t-26 53t-10 67.5t8.5 67t29.5 51.5t53 20.5q62 0 115 -0.5t100 -0.5h89h83z" />
    <glyph glyph-name="U" unicode="U" 
d="M517 617v-55t0.5 -67t0 -70t0 -65.5t0.5 -53v-31.5q1 -80 -18.5 -133t-54 -84.5t-81.5 -44.5t-102 -13q-71 0 -119 18t-78 50.5t-43.5 78t-16.5 100.5q-2 32 -2.5 81t-1 100t-0.5 95t-1 67q-1 33 14 57t38 38t50.5 16.5t51 -7t39 -32.5t15.5 -61q0 -16 -1 -46.5t-2 -71.5
t-1.5 -90t-0.5 -101q0 -39 13.5 -63t29.5 -27.5t30 17.5t17 73q1 22 1 63t-0.5 87t-1 90t-0.5 74q0 24 16 43.5t40.5 32t53.5 16.5t54 -2.5t42 -25.5t19 -53z" />
    <glyph glyph-name="V" unicode="V" horiz-adv-x="584" 
d="M300 605q14 45 39 68.5t53 29.5t56 -3.5t49 -31t31 -52t3 -67.5q-3 -15 -12 -45.5t-21.5 -70t-27 -84t-28.5 -86.5t-26 -79t-19 -60q-21 -65 -60.5 -95t-82.5 -29t-82 32t-57 89q-7 22 -16.5 57t-21 76.5t-23 86.5t-21.5 86t-18 74.5t-12 53.5q-8 42 3 72.5t32.5 49
t49.5 25.5t55 1t49 -25t31 -51q3 -11 7 -32.5t8.5 -49.5t9.5 -61t11 -67q11 60 22 111.5t19 76.5z" />
    <glyph glyph-name="W" unicode="W" horiz-adv-x="842" 
d="M569 628q6 32 27 51t48 25t56.5 -0.5t52 -25.5t34 -49.5t3.5 -72.5q-4 -20 -9.5 -53.5t-12 -74.5t-14.5 -85t-15.5 -85.5t-15 -76.5t-14.5 -57q-17 -57 -52 -86t-74.5 -35t-77 9.5t-59.5 48.5q-5 6 -12 23t-14.5 37.5t-14 39.5t-9.5 28q-3 -9 -9.5 -28t-13.5 -38.5
t-13.5 -36.5t-10.5 -23q-17 -34 -48.5 -50.5t-66 -11.5t-66 34.5t-49.5 86.5q-6 22 -16.5 57t-22 77t-23.5 86.5t-22.5 86t-19 75t-12.5 53.5q-8 42 2.5 72.5t31.5 49t49 25.5t55 0.5t49.5 -25.5t32.5 -51q4 -14 10 -35.5t12 -48.5t13 -58t13 -63q9 38 16.5 71t12.5 56
q3 13 8.5 30.5t16 32.5t26.5 26t41 11q21 0 37.5 -9t28 -24t19 -33t11.5 -34q6 -24 16.5 -58.5t22.5 -74.5q7 35 13.5 69t12.5 62.5t10 49.5t6 30z" />
    <glyph glyph-name="X" unicode="X" horiz-adv-x="578" 
d="M424 343q28 -39 51 -73.5t37 -58.5q17 -28 17 -58.5t-12 -58.5t-32 -50.5t-43 -33.5t-46 -9t-40 24q-12 16 -32.5 42.5t-46.5 59.5q-20 -29 -38.5 -54.5t-32.5 -44.5q-15 -20 -38.5 -25.5t-49 1t-49 22.5t-38.5 40.5t-18 55.5t13 67q10 23 34 63t56 88q-14 20 -29 42
t-28 42t-23 36.5t-15 25.5q-20 38 -21 74.5t11.5 66t34.5 50t48 27t52.5 -2.5t48.5 -38q9 -12 28 -38.5t45 -62.5q22 32 39.5 55.5t27.5 36.5q23 30 52 40.5t56.5 5t50 -27t31 -56t0 -80.5t-41.5 -102q-8 -13 -23 -36.5t-36 -54.5z" />
    <glyph glyph-name="Y" unicode="Y" horiz-adv-x="570" 
d="M296 621q0 27 16.5 46t41 28.5t53 10t53.5 -8.5t41.5 -28t17.5 -47v-119q0 -119 -41 -195.5t-108 -109.5v-65q0 -44 -16 -73t-40 -44t-51.5 -16t-52 12t-41 40t-17.5 67q-1 23 -1.5 41t-1.5 34q-40 17 -68.5 45t-46.5 63.5t-26 76.5t-8 83v135q0 36 15 60t37.5 36
t48.5 12.5t48.5 -10.5t37 -34t14.5 -57q-1 -33 0 -50t1 -36q0 -43 14.5 -68t31.5 -27.5t32 19.5t16 74q1 33 0 60t0 45z" />
    <glyph glyph-name="Z" unicode="Z" horiz-adv-x="570" 
d="M420 236q32 4 53.5 -12t33 -42t13 -58t-8 -59.5t-29 -46t-49.5 -18.5h-370q-21 0 -38 12.5t-22.5 37.5t4 63t41.5 90q9 15 24.5 38t34.5 51.5t41 61t45 65.5q-32 0 -62.5 0.5t-53.5 2.5q-21 1 -37.5 22.5t-25 53t-9.5 67.5t7.5 67t28 51.5t51.5 20.5q60 0 104.5 -0.5
t81.5 -0.5h71h72q36 0 59.5 -24.5t33 -61t3.5 -77.5t-30 -73q-14 -20 -35 -48.5t-46.5 -61t-53 -67.5t-53.5 -68q29 3 59 6.5t62 7.5z" />
    <glyph glyph-name="at" unicode="@" horiz-adv-x="917" 
d="M572 331q23 0 36.5 -6.5t20.5 -25t8.5 -53.5t1.5 -92q0 -48 -5.5 -78t-14.5 -47.5t-21 -23.5t-25 -6q-25 0 -40 32q-22 -17 -50 -24.5t-60 -7.5q-41 0 -76.5 7.5t-62 27t-42 52.5t-15.5 84q-1 59 20 91.5t51.5 48.5t64.5 19t58 3q26 0 52 -6.5t48 -21.5q13 27 51 27z
M417 92q22 0 41 11t18 43q-1 31 -20 44t-40 13q-8 0 -19 -2.5t-20.5 -8.5t-17 -16.5t-7.5 -26.5q-1 -32 18.5 -44.5t46.5 -12.5zM437 669q90 0 169.5 -34t139 -93.5t93.5 -139t34 -169.5t-34 -169t-93.5 -138.5t-139 -93.5t-169.5 -34t-169.5 34t-139 93.5t-93.5 138.5
t-34 169t34 169.5t93.5 139t139 93.5t169.5 34zM439 -88q55 0 103.5 21t84.5 57t57 84.5t21 103.5t-21 103.5t-57 84.5t-84.5 57t-103.5 21t-103.5 -21t-84.5 -57t-57 -84.5t-21 -103.5t21 -103.5t57 -84.5t84.5 -57t103.5 -21z" />
    <glyph glyph-name="a" unicode="a" horiz-adv-x="573" 
d="M438 421q30 0 47 -8t26 -32t11 -68t1 -117q0 -60 -7 -98.5t-18 -60t-26 -29.5t-32 -8q-32 0 -51 40q-28 -21 -63.5 -30.5t-75.5 -9.5q-52 0 -97.5 9.5t-79 34t-53 66t-20.5 106.5q-1 75 25.5 116.5t65.5 61.5t81.5 24t73.5 4q34 0 67 -8t60 -27q16 34 65 34zM242 118
q14 0 27.5 3t24 10.5t16.5 21t6 33.5q0 19 -7 33t-17.5 23t-24 13t-26.5 4q-10 0 -24 -3t-27 -10.5t-22 -21t-9 -34.5q0 -20 6.5 -33.5t17.5 -22t26.5 -12.5t32.5 -4z" />
    <glyph glyph-name="b" unicode="b" horiz-adv-x="567" 
d="M270 422q31 0 73.5 -4t81.5 -24t65.5 -61.5t25.5 -116.5q-1 -65 -20.5 -106.5t-53 -66t-79 -34t-97.5 -9.5q-38 0 -71.5 8t-60.5 27q-11 -20 -25.5 -27.5t-31.5 -7.5q-35 0 -56 47.5t-21 147.5q0 107 1 179t8.5 115.5t24.5 62t49 18.5q22 0 37 -9.5t23.5 -30t12.5 -53
t5 -79.5q25 13 52.5 18.5t56.5 5.5zM274 118q34 0 59 16t24 56q0 21 -9.5 34.5t-22 21t-26.5 10.5t-24 3q-13 0 -26.5 -4t-24 -13t-17.5 -23t-7 -33q0 -20 6 -33.5t16.5 -21t24 -10.5t27.5 -3z" />
    <glyph glyph-name="c" unicode="c" horiz-adv-x="571" 
d="M337 224q-4 23 -31.5 36t-59 11t-57 -21.5t-26.5 -59.5q0 -26 10 -41t25.5 -22t35 -7.5t37 3t31.5 8.5t20 10q22 21 50.5 24.5t51.5 -7t33.5 -32t-2.5 -51.5q-11 -17 -33.5 -31t-52 -24t-61.5 -15t-62 -5q-249 0 -246 216q1 60 24.5 100t60.5 63.5t83 33t93 9.5
q44 0 89 -11t82 -35t61.5 -62.5t26.5 -94.5q0 -17 -12.5 -27.5t-31.5 -15.5t-41.5 -4t-43 7t-35.5 17t-19 28z" />
    <glyph glyph-name="d" unicode="d" horiz-adv-x="573" 
d="M438 570q30 0 46.5 -12.5t25 -52t11 -113.5t2.5 -196q0 -60 -6.5 -98.5t-18 -60t-26.5 -29.5t-32 -8q-32 0 -51 40q-28 -21 -63.5 -30.5t-75.5 -9.5q-52 0 -97.5 9.5t-79 34t-53 66t-20.5 106.5q-1 75 25.5 116.5t65.5 61.5t81.5 24t73.5 4q34 0 67 -8t60 -27
q1 37 1 70.5t5.5 58.5t18.5 39.5t40 14.5zM242 118q14 0 27.5 3t24 10.5t16.5 21t6 33.5q0 19 -7 33t-17.5 23t-24 13t-26.5 4q-10 0 -24 -3t-27 -10.5t-22 -21t-9 -34.5q0 -20 6.5 -33.5t17.5 -22t26.5 -12.5t32.5 -4z" />
    <glyph glyph-name="e" unicode="e" horiz-adv-x="571" 
d="M337 224q-3 17 -19.5 28.5t-38.5 16t-45.5 0.5t-41.5 -18h20q26 0 43.5 -17t20.5 -38t-13 -38.5t-57 -18.5h-13t-13 1q9 -12 29 -16.5t42.5 -3.5t42 7t28.5 14q22 21 51 24.5t51.5 -7t33 -32t-2.5 -51.5q-11 -17 -33.5 -31t-52 -24t-61.5 -15t-62 -5q-249 0 -246 216
q1 60 24.5 100t60.5 63.5t83 33t93 9.5q44 0 89 -11t82 -35t61.5 -62.5t26.5 -94.5q0 -17 -12.5 -27.5t-31.5 -15.5t-41.5 -4t-43 7t-35.5 17t-19 28z" />
    <glyph glyph-name="f" unicode="f" horiz-adv-x="571" 
d="M261 606q44 0 89 -11t82.5 -35t62 -62.5t26.5 -94.5q0 -16 -13 -27t-32.5 -16t-43 -4.5t-43.5 6.5t-34.5 17.5t-16.5 28.5q-3 28 -26.5 40.5t-50.5 8t-49.5 -27t-23.5 -64.5q0 -6 0 -3.5v2.5l-0.5 -8t-0.5 -33h46t42.5 -0.5t33 -1t18.5 -0.5q33 0 56 -12t34.5 -31
t11 -40.5t-12.5 -40.5t-36.5 -32.5t-62.5 -14.5q-22 -1 -58 -1.5t-72 -1.5v-62q-2 -31 -16 -50t-34.5 -27.5t-43.5 -7.5t-43 11t-33.5 27.5t-14.5 42.5q0 10 0.5 38.5t0.5 64.5t-0.5 76t-1 73.5t-0.5 55.5v24q3 57 27.5 94t61 59t81.5 31t90 9z" />
    <glyph glyph-name="g" unicode="g" horiz-adv-x="567" 
d="M439 420q28 0 43.5 -14.5t23.5 -48t9.5 -87t1.5 -131.5q0 -11 -0.5 -32t-1 -43.5t-0.5 -40.5v-22q-5 -75 -34 -113t-74.5 -52.5t-104 -14t-121.5 1.5q-27 0 -44 13t-25 31t-7 39.5t11 39t29 29t47 10.5q30 -2 58.5 -2t51 3t37 11t17.5 23q-23 -11 -50 -15.5t-56 -4.5
q-52 0 -97.5 9.5t-79 34t-53 66t-20.5 106.5q-1 75 25.5 116t65.5 61t81.5 24.5t73.5 4.5q35 0 69 -9t63 -29q9 20 23.5 28t37.5 8zM242 118q14 0 27.5 3t24 10.5t16.5 20.5t6 34q0 19 -7 32.5t-17.5 22.5t-24 13t-26.5 4q-10 0 -24 -3t-27 -10.5t-22 -20.5t-9 -34
q0 -20 6.5 -34t17.5 -22.5t26.5 -12t32.5 -3.5z" />
    <glyph glyph-name="h" unicode="h" horiz-adv-x="555" 
d="M278 423q79 0 125 -24.5t69.5 -67t29 -99.5t4.5 -123q-1 -42 -18.5 -67t-42.5 -34.5t-54 -6t-53.5 17.5t-40.5 37.5t-14 53.5q0 18 3.5 50.5t1.5 64.5t-13 55.5t-39 24.5q-70 2 -68 -116q-1 -58 -9 -95t-21 -58t-29 -28.5t-32 -7.5q-35 0 -56 47.5t-21 147.5
q0 107 1.5 179t10 115.5t26 62t49.5 18.5q27 0 42.5 -11.5t24 -35t11.5 -59.5t4 -84q19 19 44 31t65 12z" />
    <glyph glyph-name="i" unicode="i" horiz-adv-x="213" 
d="M78 421q29 0 46 -8t26 -32t11 -68t1 -117q0 -60 -7 -98.5t-18 -60t-26 -29.5t-32 -8q-34 0 -54 47.5t-23 147.5q-2 60 -2.5 102.5t6.5 70.5t23.5 40.5t48.5 12.5zM80 441q-40 0 -60 20t-19.5 44t20.5 44t61 20q25 0 42.5 -9.5t27 -23.5t10 -30.5t-8 -31t-27 -24
t-46.5 -9.5z" />
    <glyph glyph-name="j" unicode="j" horiz-adv-x="211" 
d="M83 419q28 0 44.5 -12.5t24.5 -44t9.5 -86t-1.5 -138.5v-32t-0.5 -43.5t-0.5 -40.5v-22q-5 -75 -34 -113t-74.5 -52.5t-104 -14t-121.5 1.5q-27 0 -44 13t-25 31t-7 39.5t11 39t29 29t47 10.5q30 -2 59 -3t52 5.5t37.5 26t16.5 60.5q1 48 0.5 85.5t-0.5 78.5q0 25 -1 57
t5 59.5t23.5 46.5t54.5 19zM80 441q-40 0 -60 20t-19.5 44t20.5 44.5t61 20.5q38 0 58 -20t21 -44.5t-19 -44.5t-62 -20z" />
    <glyph glyph-name="k" unicode="k" horiz-adv-x="576" 
d="M445 133q42 -8 61.5 -31.5t15 -47.5t-32.5 -41.5t-81 -11.5q-27 3 -61 11t-68.5 21.5t-67 33t-56.5 44.5q-5 -33 -12.5 -54.5t-17.5 -34t-22.5 -17t-25.5 -4.5q-35 0 -56 47.5t-21 147.5q0 107 1 179t8.5 115.5t24.5 62t49 18.5q24 0 39 -10.5t23.5 -33.5t12 -59.5
t3.5 -89.5q54 45 143 45q46 0 87 -10.5t71 -30.5t46.5 -49t15.5 -65q-1 -45 -28.5 -81t-74.5 -54q14 2 24 0zM287 193q21 0 34 5t21 14t11.5 20t3.5 23q1 27 -18.5 42.5t-53.5 15.5q-32 -1 -52 -16t-20 -40q0 -23 17.5 -43.5t56.5 -20.5z" />
    <glyph glyph-name="l" unicode="l" horiz-adv-x="238" 
d="M97 640q41 -2 62 -34.5t28 -91t4 -139.5t-9 -179q-4 -60 -12.5 -98.5t-20.5 -60t-27 -29.5t-32 -8q-34 0 -55.5 47.5t-28.5 147.5q-7 94 -8 174t8 138.5t30.5 93.5t60.5 39z" />
    <glyph glyph-name="m" unicode="m" horiz-adv-x="711" 
d="M471 421q52 0 88.5 -24.5t59 -67t32 -99.5t8.5 -123q-1 -42 -16 -66.5t-37.5 -34.5t-48 -6.5t-47.5 17.5t-36 37.5t-14 53.5v69t-4 63.5t-11.5 46.5t-22.5 19t-25 -13.5t-12 -46.5q0 -30 0.5 -65.5t1.5 -73.5q1 -42 -10.5 -67t-30 -35t-40.5 -6.5t-40.5 18t-30.5 38
t-10 53.5q0 18 1 50t-1 64t-9 55.5t-22 25.5q-12 1 -19 -8.5t-10 -26t-4 -38.5t-1 -47t0.5 -57t-5.5 -60t-23 -47t-54 -19q-28 0 -44 15t-24 48.5t-9.5 87t-0.5 131.5q0 10 1.5 33.5t8.5 46.5t21 41t40 18t42 -15.5t25 -43.5q11 20 37.5 39t72.5 20q37 1 63 -15.5t43 -45.5
q22 33 50 47t67 14z" />
    <glyph glyph-name="n" unicode="n" horiz-adv-x="557" 
d="M264 421q79 0 127.5 -24.5t75 -66.5t34.5 -99.5t7 -123.5q-1 -42 -17.5 -66.5t-40.5 -34.5t-52 -6.5t-51.5 17.5t-39 37.5t-13.5 53.5q0 18 1.5 51t-2.5 64.5t-17 55.5t-41 24q-38 1 -55 -29.5t-16 -90.5q0 -25 0.5 -57t-6.5 -59.5t-25 -46.5t-55 -19q-28 0 -44 15
t-24 48t-9.5 86.5t-0.5 131.5q0 10 1.5 33.5t8.5 46.5t21 41t40 18t46.5 -15.5t28.5 -43.5q7 9 16 19.5t22.5 19.5t32.5 14.5t47 5.5z" />
    <glyph glyph-name="o" unicode="o" horiz-adv-x="559" 
d="M276 422q45 0 87.5 -11.5t75.5 -37.5t53 -67.5t19 -101.5q-1 -58 -19.5 -97t-50 -63t-73.5 -34t-88 -10q-59 0 -109.5 9.5t-88 34t-59.5 66t-23 106.5q-1 50 13 84.5t37 57.5t52.5 36t60.5 19t60.5 7.5t52.5 1.5zM266 118q35 0 60.5 16.5t25.5 51.5q0 39 -27 55.5
t-61 16.5q-13 0 -28 -3t-28 -10.5t-22 -20.5t-10 -34q-1 -35 22 -53.5t68 -18.5z" />
    <glyph glyph-name="p" unicode="p" horiz-adv-x="567" 
d="M271 421q31 0 73.5 -4.5t81.5 -24.5t65.5 -61t25.5 -116q-1 -65 -20.5 -106.5t-53 -66t-79 -34t-97.5 -9.5q-29 0 -56 4.5t-50 15.5q-3 -88 -23.5 -129t-52.5 -41q-17 0 -32 8t-26.5 29.5t-18 60t-7.5 98.5q-1 105 -1 176.5t6.5 115.5t23 63t48.5 19q23 0 37.5 -8
t23.5 -28q29 20 63 29t69 9zM275 117q34 0 59 15.5t24 56.5q-1 21 -10 34t-21.5 20.5t-26.5 10.5t-24 3q-13 0 -26.5 -4t-24 -13t-17.5 -22.5t-7 -32.5q0 -21 6 -34t16.5 -20.5t24 -10.5t27.5 -3z" />
    <glyph glyph-name="q" unicode="q" horiz-adv-x="565" 
d="M439 420q32 0 48.5 -19t23 -63t6.5 -115.5t-1 -176.5q-1 -60 -7.5 -98.5t-18 -60.5t-26.5 -29.5t-32 -7.5q-32 0 -52.5 41t-23.5 129q-23 -11 -50 -16t-56 -5q-52 0 -97.5 9.5t-79 34t-53 66t-20.5 106.5q-1 75 25.5 116.5t65.5 61.5t81.5 24t73.5 4q35 1 69 -8.5
t63 -29.5q17 37 61 37zM242 117q14 0 27.5 3t24 10.5t16.5 21t6 33.5q0 19 -7 33t-17.5 23t-24 13t-26.5 4q-10 0 -24 -3t-27 -10.5t-22 -21t-9 -34.5q0 -20 6.5 -33.5t17.5 -22t26.5 -12.5t32.5 -4z" />
    <glyph glyph-name="r" unicode="r" horiz-adv-x="571" 
d="M442 133q42 -8 61.5 -31.5t15 -47.5t-32.5 -41.5t-81 -11.5q-27 3 -60 11t-66.5 21t-65.5 31t-57 42q-5 -32 -12.5 -52t-17.5 -32t-22 -16.5t-25 -4.5q-34 0 -54 47.5t-23 147.5q-2 60 -2.5 102.5t6.5 70.5t23.5 40.5t48.5 12.5q32 -1 49.5 -10t25.5 -38q26 23 64 36
t84 13t87 -10.5t71 -30.5t46.5 -49t15.5 -65q-1 -45 -28.5 -81t-74.5 -54q14 2 24 0zM288 197q42 2 55.5 20t14.5 42q1 27 -18.5 42.5t-53.5 15.5q-32 0 -52 -15.5t-20 -40.5q0 -12 4 -23.5t13 -21t23 -15t34 -4.5z" />
    <glyph glyph-name="s" unicode="s" horiz-adv-x="576" 
d="M484 191q12 -2 21 -9t14.5 -17.5t7.5 -21.5t0 -20q-10 -46 -41.5 -72.5t-75.5 -39t-96 -12t-103 9.5t-95.5 24t-74.5 32q-25 15 -34 37t-6.5 46t14 45.5t26.5 35.5q-8 14 -10.5 33t1.5 45q5 42 35 67.5t74.5 38t97 12.5t102.5 -9t92.5 -26.5t66.5 -40.5q17 -17 23 -41
t3 -48t-14 -43t-28 -26zM330 123q20 -2 27 1.5t3.5 9t-15 11.5t-27.5 10q-33 8 -65.5 12t-62.5 7q45 -26 81 -38t59 -13zM231 264q80 -7 145 -26q-34 24 -62.5 39t-65.5 20q-17 2 -27 -2.5t-13 -10.5t2.5 -12.5t20.5 -7.5z" />
    <glyph glyph-name="t" unicode="t" horiz-adv-x="403" 
d="M352 487q0 -17 -7 -29.5t-19.5 -21t-29.5 -14t-37 -8.5q-1 -45 -4 -99t-9 -119q-5 -60 -13.5 -98.5t-20 -60t-26 -29.5t-31.5 -8q-34 0 -59.5 47.5t-33.5 147.5q-5 65 -7.5 119t-2.5 99q-25 5 -38 21t-14 51t13.5 52t46.5 25q12 80 38 110.5t64 30.5q36 0 59 -29t33 -105
q48 -2 73 -18t25 -64z" />
    <glyph glyph-name="u" unicode="u" horiz-adv-x="557" 
d="M431 421q28 0 43.5 -15t23.5 -48.5t9.5 -87t0.5 -131.5q0 -11 -1.5 -34t-8 -46t-21 -41t-40.5 -18t-42 15.5t-24 43.5q-14 -28 -42 -43.5t-84 -15.5q-80 0 -128.5 24.5t-75 66.5t-35 99.5t-6.5 123.5q1 42 17.5 66.5t41 34.5t52.5 6.5t51.5 -17.5t38.5 -37.5t14 -53.5
q0 -18 -1.5 -48t2.5 -59t17 -50.5t41 -21.5q38 -1 56 26.5t19 77.5q0 25 -1 57t5 60t23.5 47t54.5 19z" />
    <glyph glyph-name="v" unicode="v" horiz-adv-x="567" 
d="M368 385q16 31 44 33.5t53.5 -13t41 -44t7.5 -58.5q-7 -25 -21.5 -57.5t-34.5 -66t-44.5 -66t-51.5 -57.5t-55.5 -40.5t-56.5 -15.5q-30 0 -61.5 15t-63 48t-62 85.5t-58.5 127.5q-12 34 3 68.5t43 55t60 19t53 -40.5q6 -12 18.5 -44t25.5 -69t25 -70.5t18 -49.5
q8 17 21.5 45t29 61t33 67.5t33.5 66.5z" />
    <glyph glyph-name="w" unicode="w" horiz-adv-x="681" 
d="M630 315q1 -66 -6.5 -123t-31 -99.5t-66.5 -67t-112 -24.5q-33 0 -53.5 9t-32.5 20q-14 12 -21 29q-1 0 -4.5 -8.5t-13.5 -18.5t-28 -19.5t-48 -11.5q-65 -5 -106.5 10.5t-65.5 53.5t-33 99.5t-8 150.5q0 42 16.5 66.5t40.5 34.5t51.5 6.5t50.5 -17.5t38 -37.5t14 -53.5
q0 -18 -7.5 -48.5t-11 -59.5t2 -50t29.5 -21q16 0 23 13t9.5 31.5t3.5 41t5.5 41t14.5 31.5t31 13q20 0 29.5 -12.5t13.5 -31.5t5 -41t4 -41t10.5 -32t24.5 -13t24 9.5t8 25.5t-2.5 36t-8.5 40t-9 38t-4 30q-1 30 14.5 53.5t40.5 37.5t54 17.5t54 -6.5t42.5 -34.5
t18.5 -66.5z" />
    <glyph glyph-name="x" unicode="x" horiz-adv-x="573" 
d="M508 142q14 -14 15 -32.5t-8 -37t-25.5 -34.5t-37 -25.5t-42.5 -10t-41 12.5q-18 13 -45 31t-59 38q-54 -26 -98 -48t-63 -31q-18 -9 -36 -3.5t-32 20.5t-24 36t-12 43t5 42.5t26 34.5q9 7 19.5 14.5t22.5 16.5q-12 8 -20.5 14t-12.5 9q-29 23 -34 50t6 52t35 45.5t52 32
t57.5 11t51.5 -18.5q13 -11 29 -24t35 -29q29 20 50.5 34.5t29.5 19.5q32 19 60 15.5t50.5 -21.5t37 -46t18.5 -57.5t-4.5 -56t-32.5 -41.5q-9 -6 -21 -12q16 -14 28 -25.5t20 -18.5z" />
    <glyph glyph-name="y" unicode="y" horiz-adv-x="555" 
d="M431 421q28 0 43.5 -15t23.5 -48t9.5 -86.5t0.5 -131.5v-32t-0.5 -43.5t-0.5 -40.5v-22q-5 -76 -34 -113.5t-74.5 -52.5t-104 -14t-121.5 2q-27 0 -44 13t-25 31t-7 39.5t11 39t29 29t47 10.5q30 -2 58.5 -2t51 3t37 11t17.5 23q-13 -9 -44 -15t-70 -6q-79 -2 -126 22.5
t-71.5 67.5t-31.5 101t-5 124q1 42 17.5 66.5t41 34.5t52.5 6.5t51.5 -17.5t38.5 -37.5t14 -53.5q0 -18 -1.5 -48.5t2.5 -59t17 -50t41 -21.5q38 -1 56 26t19 78q0 25 -1 57t5 59.5t23.5 46.5t54.5 19z" />
    <glyph glyph-name="z" unicode="z" horiz-adv-x="573" 
d="M455 176q22 1 37.5 -12t23.5 -32.5t8.5 -42.5t-7.5 -43t-25 -33t-44 -13h-380q-27 0 -43 23.5t-20 53.5t6 59t35 40q12 5 29 11t35 11.5t35 11t30 10.5q-5 0 -15 -0.5t-23.5 -0.5h-27.5h-26q-27 0 -45.5 15.5t-28 38t-10 48.5t9 48.5t28 37.5t46.5 15h330q7 0 15 -3
q28 -7 47 -30.5t25 -52t-3 -57.5t-36 -47q-6 -4 -21 -11.5t-32.5 -16t-34 -16.5t-26.5 -13h28.5h32.5t29 0.5t18 0.5z" />
    <glyph glyph-name="OE" unicode="&#x152;" horiz-adv-x="929" 
d="M781 188q33 2 54.5 -11t31.5 -33t9.5 -44t-11 -45t-31 -36t-49.5 -17q-25 -2 -69.5 -2.5t-92 -0.5h-89t-60.5 1q-26 2 -44.5 12.5t-32.5 28.5q-30 -18 -64.5 -30.5t-72.5 -12.5q-54 0 -101.5 20t-82.5 62t-55.5 107t-20.5 154q0 69 7.5 135.5t34.5 118.5t79.5 84
t143.5 32q47 0 82.5 -8t61.5 -22q13 11 29 17.5t36 7.5q19 1 60.5 0.5t88.5 -0.5h91.5t70.5 2q29 1 50 -19t32 -51.5t12 -68.5t-9 -69t-31 -53.5t-54 -21.5h-193q-27 0 -35 -9.5t-7 -34.5h69q20 0 42 1q15 0 24.5 -11t13.5 -28.5t3.5 -37.5t-6 -37.5t-15.5 -29.5t-24 -13
q-10 -1 -24.5 -1.5t-30 -0.5t-30 0.5t-23.5 0.5q0 -3 -1 -9t-1 -12t2.5 -10.5t9.5 -4.5q22 0 48.5 -0.5t55.5 -0.5h59t59 1zM266 160q29 0 47.5 12.5t28.5 33t13.5 47t3.5 55.5q0 21 -3 43t-13 40t-27.5 29.5t-46.5 11.5q-27 0 -45 -12.5t-28.5 -31t-15 -41.5t-5.5 -44
t3 -46t14 -46.5t28 -36t46 -14.5z" />
    <glyph glyph-name="AE" unicode="&#xc6;" horiz-adv-x="892" 
d="M744 190q33 1 54.5 -12t31.5 -33t9.5 -44t-11 -45.5t-31 -36t-49.5 -15.5q-19 -1 -45.5 -2t-56.5 -1.5t-62 -0.5h-60.5t-51 0.5t-35.5 1.5q-22 1 -42.5 5.5t-36 13.5t-24.5 24.5t-9 40.5q0 2 -0.5 11.5t-0.5 27.5q-23 -3 -47 -4.5t-46 0.5q1 -3 1 -10q0 -37 -16 -60.5
t-40.5 -35t-53.5 -12t-53.5 8.5t-41.5 26t-17 41q-2 27 -3.5 57t-2 58t-0.5 51v36q-1 120 14.5 200.5t47.5 130t80.5 72t112.5 24.5q68 3 116 -24q25 22 62 23q19 1 60.5 1h88.5h91.5t70.5 2q29 2 50 -18.5t32 -52t12 -68.5t-9 -69t-31 -53.5t-54 -21.5q-21 0 -47 -0.5
t-52 -0.5h-50.5h-43.5q-34 0 -40 -18q1 -6 1 -12t1 -13h67q19 0 40 1q15 0 24.5 -11.5t14 -28.5t3.5 -37.5t-6.5 -38t-15.5 -29.5t-24 -13q-9 0 -21.5 -0.5t-26.5 -0.5h-28h-24v-35q1 0 1.5 -0.5t1.5 -0.5q43 0 103.5 -0.5t117.5 1.5zM226 275q23 -2 49 -3t46 -2
q-1 11 -1 21v21q0 55 -15 84t-32.5 29t-32 -31.5t-14.5 -97.5v-21z" />
    <glyph glyph-name="Ccedilla" unicode="&#xc7;" horiz-adv-x="572" 
d="M517 372q-3 -26 -17.5 -41.5t-35 -23.5t-43.5 -8t-42 5.5t-31.5 15.5t-11.5 24q4 81 -64 81q-26 0 -41 -12t-23.5 -32t-11 -47.5t-2.5 -58.5q0 -44 10.5 -73t26 -44t34 -16.5t34.5 7.5t27 28.5t13 47.5q1 15 14 24.5t31.5 12.5t39.5 1t39 -10t30 -21.5t11 -31.5
q-1 -27 -14 -62t-41 -65.5t-73 -51.5t-109 -20q-3 -5 -3.5 -9.5t8.5 -4.5q23 -2 34 -15.5t6.5 -29.5t-26 -28.5t-62.5 -10.5q-7 0 -11.5 8t-4.5 17t4 16t14 6q9 0 13 3t4 6.5t-3.5 7t-8.5 3.5q-14 1 -15 12.5t1 23.5q-109 20 -166 115.5t-50 248.5q4 95 30.5 161.5t66 107
t88.5 56.5t98.5 10.5t95 -31t79 -68.5t50 -102t8.5 -132z" />
    <glyph glyph-name="oe" unicode="&#x153;" horiz-adv-x="926" 
d="M694 224q-3 17 -20 28.5t-39 16t-45.5 0.5t-41.5 -18h21q25 0 43 -17t20.5 -38t-13.5 -38.5t-57 -18.5h-13t-12 1q9 -12 29 -16.5t42 -3.5t41.5 7t28.5 14q22 21 51 24.5t52 -7t33.5 -32t-2.5 -51.5q-11 -17 -34 -31t-52.5 -24t-61.5 -15t-62 -5q-105 0 -165 39
q-32 -21 -71 -30t-84 -9q-59 0 -109.5 9.5t-88 34t-59.5 66t-23 106.5q-1 50 13 84.5t37 57.5t52.5 36t60.5 19t60.5 7.5t52.5 1.5q43 0 84.5 -11t73.5 -35q38 26 85.5 36t95.5 10q44 0 89 -11t82.5 -35t62 -62.5t26.5 -94.5q0 -25 -26.5 -36.5t-59.5 -10.5t-62.5 14
t-34.5 38zM268 118q35 0 60.5 16.5t25.5 51.5q0 39 -27 55.5t-61 16.5q-13 0 -28 -3t-28 -10.5t-22 -20.5t-10 -34q-1 -35 22 -53.5t68 -18.5z" />
    <glyph glyph-name="ae" unicode="&#xe6;" horiz-adv-x="915" 
d="M681 225q-3 17 -20 28.5t-39 16t-45.5 0.5t-41.5 -18q7 0 12 -0.5t9 -0.5q25 0 43 -17t20.5 -38t-13.5 -38.5t-57 -17.5h-25q9 -12 28.5 -16.5t42 -3t42 7t28.5 13.5q22 21 51 24.5t52 -6.5t33.5 -32t-3.5 -52q-11 -17 -33.5 -31t-52 -23.5t-61.5 -15t-62 -5.5
q-61 0 -109 14q-17 -14 -40 -14q-32 0 -51 40q-28 -21 -63.5 -30.5t-75.5 -9.5q-52 0 -97.5 9.5t-79 34t-53 66t-20.5 106.5q-1 75 25.5 116.5t65.5 61.5t81.5 24t73.5 4q34 0 67 -8t60 -27q16 34 65 34q19 0 32 -2.5t23 -10.5q26 8 54.5 11t56.5 3q44 0 89 -10.5
t82.5 -34.5t61.5 -63t26 -95q0 -17 -12.5 -27.5t-31.5 -15t-41.5 -4t-43 7t-35.5 17.5t-18 28zM242 118q14 0 27.5 3t24 10.5t16.5 21t6 33.5q0 19 -7 33t-17.5 23t-24 13t-26.5 4q-10 0 -24 -3t-27 -10.5t-22 -21t-9 -34.5q0 -20 6.5 -33.5t17.5 -22t26.5 -12.5t32.5 -4z
" />
    <glyph glyph-name="ccedilla" unicode="&#xe7;" horiz-adv-x="572" 
d="M337 226q-4 23 -31.5 36t-59 10.5t-57 -21.5t-26.5 -60q0 -26 10 -40.5t25.5 -21.5t35 -7.5t37 2.5t31.5 8t20 10q22 21 50.5 25t51.5 -6.5t33.5 -32.5t-2.5 -52q-11 -17 -33.5 -31t-52 -23.5t-61.5 -15t-62 -5.5h-1q-3 -5 -3.5 -9.5t8.5 -5.5q24 -1 34.5 -15t6 -29.5
t-26 -28t-62.5 -10.5q-7 0 -11 7.5t-4.5 16.5t3.5 16t14 7q9 0 13 2.5t4 6.5t-3.5 7.5t-8.5 3.5q-14 1 -15 12t1 22q-198 21 -195 213q1 61 24.5 100.5t60.5 63t83 33t93 9.5q44 0 89 -10.5t82 -34.5t61.5 -63t26.5 -95q0 -17 -12.5 -27.5t-31.5 -15t-41.5 -4t-43 7
t-35.5 17.5t-19 28z" />
    <glyph glyph-name="exclam" unicode="!" horiz-adv-x="319" 
d="M0 596q0 36 20.5 60t51.5 35.5t67 11t66 -13t48.5 -37t15.5 -60.5q-2 -26 -6 -63t-8.5 -79t-9 -85t-8.5 -81q-5 -47 -22 -78t-40 -46t-48.5 -14t-48.5 18t-39 49.5t-20 81.5q-2 29 -5 69t-6 81.5t-5.5 81.5t-2.5 69zM129 125q40 0 68 -18.5t28 -44.5t-28 -44t-68 -18
t-68 18t-28 44t28 44.5t68 18.5z" />
    <glyph glyph-name="question" unicode="?" horiz-adv-x="555" 
d="M507 525q3 -62 -8 -99t-30 -60t-41.5 -37t-42 -29t-31.5 -36t-10 -58q1 -22 -15 -37t-41 -23.5t-54 -9.5t-54 4t-42.5 17t-17.5 31q-1 41 13.5 69t35.5 48.5t46 36.5t46 33t35 38.5t13 52.5q-1 28 -17.5 43.5t-37 12.5t-39.5 -26.5t-24 -73.5q-3 -22 -18 -35.5t-36 -19.5
t-45 -4t-44.5 11.5t-34 26.5t-13.5 42q0 66 20 114.5t54.5 80t79.5 47.5t96 19q63 3 110.5 -10.5t79.5 -38.5t48.5 -59t18.5 -71zM235 125q24 0 44.5 -5t36 -13.5t24.5 -20t9 -24.5t-9 -24t-24.5 -19.5t-36 -13.5t-44.5 -5t-44.5 5t-36 13.5t-24.5 19.5t-9 24t9 24.5
t24.5 20t36 13.5t44.5 5z" />
    <glyph glyph-name="dollar" unicode="$" horiz-adv-x="512" 
d="M306 362q30 -8 58.5 -21t50 -35t33.5 -55.5t9 -82.5q-4 -59 -31 -93.5t-67.5 -52t-88 -21t-92.5 1.5q-17 -23 -32.5 -21t-21.5 30q-22 5 -40 10.5t-31 10.5q-21 9 -33.5 28.5t-16.5 42t-1 45.5t12.5 39.5t25 24t35.5 -0.5q14 -5 33.5 -12t41.5 -14q3 11 6 22.5t7 25.5
q-61 19 -94.5 44t-49.5 52t-18 54.5t0 51.5q8 112 77.5 157t200.5 29q16 42 33 56.5t31.5 8.5t23 -29t7.5 -57q38 -16 58.5 -41t27 -52.5t0.5 -54.5t-21 -46.5t-38 -29t-51 -2.5q-8 2 -17 4t-20 4q-2 -5 -3.5 -10.5t-3.5 -10.5zM200 382q2 -1 7 -1q4 11 5 19q-1 1 -4 1
q-10 2 -17 0.5t-9 -5.5t2 -8t16 -6zM241 161q15 -2 22 3t8 13t-3 16.5t-11 14.5q-5 -12 -8.5 -24t-7.5 -23z" />
    <glyph glyph-name="ampersand" unicode="&#x26;" horiz-adv-x="597" 
d="M463 398q13 16 31.5 13t32.5 -19t18 -40t-12 -48q-7 -11 -16 -17q8 -36 5 -80q-2 -34 -18.5 -70.5t-48.5 -67t-82 -50t-120 -19.5q-57 0 -103 14.5t-79 40t-51.5 61.5t-19.5 81q-1 49 15.5 86t51.5 60q-14 7 -27 21.5t-22.5 36t-14 49.5t-0.5 62q4 37 19 71.5t43.5 61
t73 42.5t107.5 16q51 0 97 -11.5t82 -36.5t59 -64.5t27 -94.5q2 -25 -9.5 -42.5t-30.5 -28t-42.5 -13.5t-45 2t-39 17.5t-23.5 33.5q-9 28 -30 42.5t-44.5 14t-44 -15t-27.5 -43.5t0 -46t18.5 -28.5t23 -20.5t12.5 -22q0 -13 -10.5 -20t-23 -16t-24 -24t-14.5 -44
q-4 -43 20.5 -72.5t78.5 -31.5q34 0 55 9t32 24.5t13 35.5t-4 40q-1 -2 -2 -3t-2 -3q-8 -14 -18.5 -15t-21.5 7t-19.5 22t-12 30.5t0 33t17.5 28.5q21 19 42.5 19.5t42.5 -1.5t42 2.5t42 30.5z" />
    <glyph glyph-name="quotesingle" unicode="'" horiz-adv-x="376" 
d="M167 624q17 42 42 56.5t46 7.5t32 -32.5t-1 -62.5q-13 -40 -40 -66.5t-59 -41t-64.5 -18t-54.5 2.5q-23 6 -17 14t25.5 24t46 43.5t44.5 72.5z" />
    <glyph glyph-name="comma" unicode="," horiz-adv-x="301" 
d="M21 23q4 30 20 49t38.5 28t47 8t45 -11.5t33.5 -29t12 -44.5q0 -9 -9.5 -27t-25 -40.5t-35 -46.5t-40 -43.5t-40 -32t-35.5 -12.5t-23 12.5t-8.5 32t1 43.5t6.5 46.5t8 40.5t5 27z" />
    <glyph glyph-name="Euro" unicode="&#x20ac;" horiz-adv-x="649" 
d="M596 371q-3 -26 -17.5 -41.5t-35 -23.5t-43.5 -8.5t-42 5t-31.5 16t-11.5 24.5q4 80 -64 80q-38 0 -57 -28q36 -2 54 -17.5t17.5 -33t-19.5 -32t-58 -14.5h-14q-1 -5 -1 -9v-9h11q39 0 59.5 -15t21.5 -33t-17.5 -33t-57.5 -16q14 -28 35 -37.5t41 -3t35 27.5t17 54
q1 15 13.5 24.5t31 12.5t40 1t39.5 -10t30 -21.5t11 -31.5q-2 -28 -15 -63.5t-42 -66t-75 -51t-113 -18.5q-88 3 -148.5 51.5t-88.5 133.5h-33q-33 0 -50.5 14.5t-17.5 31.5t20 32t62 17q-1 5 -1 10t-1 10h-12q-33 0 -50.5 14.5t-17.5 31.5t19.5 32t61.5 17q10 119 55 190
t106 100t128 19t121 -52t85 -114t20 -167z" />
    <glyph glyph-name="hyphen" unicode="-" horiz-adv-x="442" 
d="M121 300h157q21 0 35.5 -10t22 -25t8 -33t-6.5 -33t-21 -25t-35 -10q-32 0 -56.5 0.5t-45.5 1t-39 1t-36 0.5q-27 0 -41 21t-13 45.5t18 45.5t53 21z" />
    <glyph glyph-name="period" unicode="." horiz-adv-x="324" 
d="M114 125q24 0 44.5 -5t36 -13.5t24.5 -20t9 -24.5t-9 -24t-24.5 -19.5t-36 -13.5t-44.5 -5t-44.5 5t-36 13.5t-24.5 19.5t-9 24t9 24.5t24.5 20t36 13.5t44.5 5z" />
    <glyph glyph-name="colon" unicode=":" horiz-adv-x="326" 
d="M114 125q24 0 44.5 -5t36 -13.5t24.5 -20t9 -24.5t-9 -24t-24.5 -19.5t-36 -13.5t-44.5 -5t-44.5 5t-36 13.5t-24.5 19.5t-9 24t9 24.5t24.5 20t36 13.5t44.5 5zM114 250q-24 0 -44.5 5t-36 13.5t-24.5 20t-9 24.5t9 24t24.5 19.5t36 13.5t44.5 5t44.5 -5t36 -13.5
t24.5 -19.5t9 -24t-9 -24.5t-24.5 -20t-36 -13.5t-44.5 -5z" />
    <glyph glyph-name="semicolon" unicode=";" horiz-adv-x="328" 
d="M7 -26q4 30 20 49t38.5 28t47 8t45 -11.5t33.5 -29t12 -44.5q0 -9 -9.5 -27t-25 -40.5t-35 -46.5t-40 -43.5t-40 -32t-35.5 -12.5t-23 12.5t-8.5 32t1 43.5t6.5 46.5t8 40.5t5 27zM113 287q24 0 44.5 -5t36 -13.5t24.5 -20t9 -24.5t-9 -24.5t-24.5 -20t-36 -13.5
t-44.5 -5t-44.5 5t-36 13.5t-24.5 20t-9 24.5t9 24.5t24.5 20t36 13.5t44.5 5z" />
    <glyph glyph-name="slash" unicode="/" horiz-adv-x="440" 
d="M163 498q14 43 39.5 65.5t54 29t56.5 -2t47 -27.5t26.5 -47.5t-5.5 -62.5q-10 -26 -26.5 -69t-36.5 -93.5t-41 -104t-40 -100t-34.5 -81t-22.5 -48.5q-15 -28 -37 -45.5t-45.5 -23.5t-44.5 0t-35 25t-17.5 51.5t9.5 79.5q5 18 16.5 53.5t26.5 80t31.5 93t32 93t27.5 80
t19 54.5z" />
    <glyph glyph-name="zero" unicode="0" 
d="M265 704q81 0 130.5 -32t77 -84t37 -118.5t9.5 -135.5q0 -95 -20.5 -159t-55.5 -103t-82 -55.5t-101 -16.5t-101.5 18.5t-82.5 59t-55.5 104t-20.5 152.5q0 69 14 135.5t45 118.5t81.5 84t124.5 32zM266 157q24 0 39 10t23.5 27t11.5 38.5t3 45.5q0 17 -2.5 35.5
t-10.5 33.5t-22.5 24.5t-38.5 9.5q-23 0 -37.5 -10t-23 -25.5t-12.5 -34.5t-4 -36q-1 -17 2 -37.5t11.5 -38.5t23 -30t37.5 -12z" />
    <glyph glyph-name="one" unicode="1" horiz-adv-x="510" 
d="M263 682q25 18 59 19.5t64.5 -10.5t51.5 -36t21 -57v-452q0 -44 -17 -75.5t-43 -49t-56 -21t-56 10t-43.5 43.5t-18.5 79v31t-0.5 43.5t-1 53.5t-0.5 59q-10 -8 -19 -16t-18 -15q-25 -19 -54 -19.5t-55.5 13t-47 38t-27 54.5t3.5 63t45 63q31 27 67.5 58.5t68.5 58.5
t53.5 45.5t22.5 18.5z" />
    <glyph glyph-name="two" unicode="2" horiz-adv-x="574" 
d="M420 211q39 -1 62.5 -17t33.5 -39.5t7.5 -50.5t-15.5 -50t-35.5 -38.5t-52.5 -15.5h-271q-45 0 -76.5 15.5t-49 39t-20 51t11.5 50.5q8 18 32 39t56.5 43.5t67.5 47.5t65 51t49.5 54t20.5 58q0 28 -14 41.5t-32 12t-33.5 -18t-18.5 -48.5q-2 -30 -19.5 -50.5t-41 -31
t-50.5 -10t-49.5 13t-36 38.5t-11.5 67q4 67 28.5 113.5t62.5 75.5t85.5 41.5t98.5 12.5q63 0 108.5 -16t74.5 -43t44 -61.5t17 -71.5q5 -100 -31 -173.5t-93 -128.5q7 0 13.5 -0.5t11.5 -0.5z" />
    <glyph glyph-name="three" unicode="3" horiz-adv-x="572" 
d="M455 343q70 -46 67 -146q-1 -45 -19 -81t-51 -61.5t-79.5 -40t-103.5 -14.5q-69 0 -119 19.5t-82.5 50t-49 67t-18.5 70.5t3.5 61t12.5 48q7 23 25 36t39 16t43 -2.5t38.5 -19t24.5 -33.5t1 -46q-7 -28 2 -48t26.5 -31.5t40 -14t41.5 5.5t32 25.5t11 47.5q-1 29 -13 42.5
t-25.5 20.5t-25 12.5t-11.5 18.5q1 13 12 22t23 20t21 28t6 47q-2 28 -19 42.5t-38 15t-40.5 -13.5t-28.5 -42q-6 -21 -23.5 -33.5t-39 -17.5t-45 -2t-42.5 13.5t-30.5 28t-9.5 42.5q4 55 27 94.5t59 64.5t82 36.5t97 11.5q63 0 107.5 -16t73.5 -42.5t43.5 -61t19.5 -71.5
q4 -34 -0.5 -62t-14.5 -49.5t-23 -36t-27 -21.5z" />
    <glyph glyph-name="four" unicode="4" horiz-adv-x="574" 
d="M421 338q31 4 53.5 -11t35 -40t15 -55t-5.5 -57.5t-27 -47t-49 -22.5q-6 -1 -16 -1t-22 -1v-5q1 -32 -12.5 -53.5t-35 -32.5t-47 -11.5t-47.5 9t-37 29t-15 49.5v12q-17 0 -40.5 1t-45 2.5t-37 2.5t-17.5 2q-27 3 -47 34.5t-21 96.5q0 28 -1 73t-1.5 93t-0.5 93.5t1 74.5
q1 45 17.5 74.5t39.5 45t49.5 16.5t48.5 -11t36.5 -36.5t13.5 -60.5q-1 -24 -3 -59t-5 -74.5t-6.5 -80.5t-6.5 -77q10 2 19 2.5t18 1.5q3 37 6 70t6 58q2 22 15.5 36t31.5 19.5t38.5 2t37.5 -16.5t28.5 -36t11.5 -56q1 -15 1 -28.5v-27.5q5 1 11 1.5t12 1.5z" />
    <glyph glyph-name="five" unicode="5" horiz-adv-x="570" 
d="M518 254q5 -123 -65.5 -189.5t-200.5 -64.5q-36 1 -70 8t-62.5 23t-50.5 42.5t-35 67.5q-12 38 2.5 64t41.5 35.5t59 2t55 -35.5q21 -26 48.5 -36t52 -5.5t40.5 23.5t15 51q0 26 -13.5 41t-34 22t-46.5 7t-52.5 -3t-51 -8t-41.5 -8q-26 -4 -43 4t-28 21.5t-16.5 29
t-6.5 26.5q-4 24 -8.5 67.5t-6 87.5t1.5 79t15 44q15 23 46.5 39.5t82.5 16.5h237q34 0 54.5 -14.5t30 -37t7 -48.5t-15 -48.5t-34.5 -38t-52 -16.5q-25 -1 -68 -0.5t-94 1.5q0 -8 0.5 -17t0.5 -13q49 2 102 -4.5t97 -30.5t74 -68t33 -117z" />
    <glyph glyph-name="six" unicode="6" 
d="M178 462q32 21 69.5 30t75.5 6t73.5 -18t62.5 -43t43.5 -68.5t16.5 -94.5q0 -72 -21.5 -125t-59 -86.5t-88 -49t-109.5 -13.5q-64 3 -110 31t-75.5 78t-43 121t-13.5 158q0 37 5.5 78t19.5 80t40 72.5t67 55.5t100 29.5t140 -4.5q35 -8 58 -24.5t33.5 -37t8.5 -41.5
t-17.5 -37.5t-45 -26t-73.5 -5.5q-40 3 -68 -0.5t-46 -12t-28.5 -21.5t-14.5 -31zM354 270q1 42 -23 66.5t-55.5 27.5t-60.5 -17t-38 -68q0 -38 13 -61.5t32 -34.5t42 -10.5t42.5 12.5t33 33.5t14.5 51.5z" />
    <glyph glyph-name="seven" unicode="7" horiz-adv-x="566" 
d="M392 704q25 3 49 -4.5t42 -24t27.5 -41t5.5 -56.5q-2 -10 -7.5 -41.5t-13 -74t-17 -91.5t-18 -96t-15.5 -86.5t-11 -62.5q-6 -43 -29 -71.5t-52.5 -42.5t-61.5 -12.5t-57 18.5t-38.5 49.5t-6.5 80.5q3 22 9 56t13.5 76t16.5 88l18 92q-39 0 -78.5 1.5t-71.5 3.5
q-31 3 -53.5 21.5t-33 45t-9.5 57t16 56t44.5 42.5t75.5 17h256v0z" />
    <glyph glyph-name="eight" unicode="8" horiz-adv-x="570" 
d="M455 438q30 -29 47.5 -69t17.5 -95q0 -72 -22 -125t-60 -86.5t-90.5 -49t-112.5 -13.5q-54 2 -98.5 22.5t-75 57t-47 88t-14.5 116.5q1 46 18.5 83.5t46.5 65.5q-7 21 -10 45.5t-3 51.5q1 42 19 74.5t46.5 55.5t64 35.5t71.5 12.5q42 0 80.5 -10.5t68.5 -33t47.5 -57.5
t17.5 -85q0 -48 -12 -84zM312 482q1 28 -15.5 42t-36.5 14.5t-36.5 -13t-16.5 -40.5q0 -31 16.5 -46.5t36 -15.5t35.5 14.5t17 44.5zM177 250q0 -30 12 -49t31 -28.5t41 -9.5t40.5 10t31.5 29t13 48q0 40 -26 61t-58 21.5t-58.5 -20t-26.5 -62.5z" />
    <glyph glyph-name="nine" unicode="9" horiz-adv-x="570" 
d="M278 706q64 -2 110 -30.5t75.5 -78.5t43 -120.5t13.5 -157.5q0 -37 -5.5 -78.5t-19.5 -80t-40 -72t-67 -55.5t-100 -30t-140 4q-52 11 -77.5 41.5t-22.5 61.5t36.5 53t99.5 17q73 -5 107 11t46 47q-48 -28 -107 -27t-110.5 27t-86 75.5t-33.5 119.5q1 72 22.5 124.5
t58.5 86t87.5 49t109.5 13.5zM190 436q-1 -21 8.5 -38t24.5 -27.5t33.5 -14t35.5 2.5t30.5 21.5t19.5 42.5q0 28 -11.5 46.5t-28 27.5t-36 9.5t-36.5 -7.5t-28.5 -24t-11.5 -39z" />
    <glyph glyph-name="cent" unicode="&#xa2;" horiz-adv-x="355" 
d="M197 333q-2 11 -12 17q-5 -18 -9.5 -37.5t-9.5 -37.5q18 5 22 9q13 12 29.5 14.5t30 -3.5t20 -19t-1.5 -30q-6 -10 -19 -18t-29.5 -13.5t-35.5 -9t-36 -3.5v-1q-6 -16 -14.5 -24.5t-16.5 -8.5t-14 9.5t-6 28.5q-97 20 -95 122q0 34 12.5 56.5t33 36.5t46 20t51.5 7
q6 22 16.5 30t20.5 5.5t17.5 -13.5t7.5 -28q39 -10 68 -36.5t31 -75.5q0 -15 -15 -21.5t-34.5 -6t-37 8.5t-20.5 22zM106 283q4 16 8 34.5t8 37.5q-11 -5 -18.5 -15t-7.5 -27q-1 -19 10 -30z" />
    <glyph glyph-name="copyright" unicode="&#xa9;" horiz-adv-x="833" 
d="M627 194q-11 6 -19 -2q1 10 9.5 14.5t15.5 -1.5q-4 0 -9 -0.5t-7 -3.5q8 0 10 -7zM529 237q-7 7 -6.5 16t6.5 16q-2 2 -3.5 8t3.5 7q14 2 28.5 0.5t20.5 -13.5q-2 1 -6 1l1 -1q5 -8 4.5 -18t-8.5 -17q6 0 13 5q-1 -3 -4 -5l-6 -4q-9 -5 -21.5 -4.5t-21.5 9.5zM537 271
q-7 -5 -9 -13.5t4 -16.5q9 -11 19 -9.5t16.5 8.5t6 16.5t-12.5 16.5q-5 2 -11.5 1t-12.5 -3zM520 210q-4 -8 -13 -9q-5 0 -9 4q-2 2 -3 4q-4 0 -6.5 -3t-7.5 -1t-4 9t2 7v-7t3 -6q4 -2 6.5 1t8.5 3q3 -11 11.5 -8t11.5 10q5 -5 9 -1q4 3 0 9q9 -4 3 -10q-4 -6 -12 -2z
M510 230q-7 11 -7.5 27.5t-1.5 33.5v5t1 3v-12.5t1 -14.5q0 -11 2 -22t5 -20zM473 268q6 -7 4.5 -18.5t-8.5 -19.5q-8 -8 -19.5 -13t-21.5 -3q6 2 12.5 3.5t10.5 6.5q-13 -2 -22.5 6t-5.5 23q2 6 7 11.5t13 7.5q-7 0 -13.5 -0.5t-11.5 -0.5q3 8 16 12t24 2q3 0 8 -1.5
t7 -3.5q4 -6 0 -12zM447 228q9 -1 15.5 3.5t9 11.5t1.5 13.5t-7 10.5q-1 0 -2 0.5t-3 0.5q-2 1 -7 1q-7 0 -14.5 -4t-9.5 -9q-5 -14 1 -21t16 -7zM356 162q-3 7 0.5 11t9 5.5t10.5 -0.5t7 -8q-6 -2 -10.5 -4t-4.5 -12q-4 5 -0.5 10t7.5 7q-5 7 -12.5 3t-6.5 -12zM674 312
q6 -9 0.5 -21.5t-10.5 -18.5q-4 -5 -11 -9.5t-13 -9.5q-7 -5 -15.5 -10.5t-19.5 -10.5v-6q18 11 31 -2q9 -9 9 -19.5t-5.5 -18.5t-15 -12.5t-19.5 0.5q-4 -21 -26 -34.5t-43 -17.5q-39 -8 -74 -5q-24 1 -40.5 10.5t-26.5 23.5q-5 -7 -10.5 -10.5t-14.5 -5.5
q-16 -2 -23.5 7.5t-8 22t7 23t21.5 9.5q-2 5 -2 9t-2 8q-14 5 -27 10.5t-24 11.5q-12 9 -9 20q1 7 6 11t11 4t11 -4.5t6 -13.5q-1 -4 -3.5 -2t-6 5.5t-7.5 5.5t-8 -2q-4 -5 -0.5 -10.5t9.5 -9.5q8 -5 17.5 -8.5t20.5 -6.5q-2 1 -2 4q6 3 6.5 8.5t-4.5 10.5q-5 3 -10.5 4.5
t-7.5 6.5q-2 4 0.5 7t5.5 6.5t5.5 7.5t-0.5 9q-5 8 -15.5 12t-15.5 15q-2 8 1.5 14t8.5 13q6 8 3 14t-10 11t-15 9t-12 9q-14 14 -15 33.5t7 34.5q3 4 8.5 9.5t10.5 11.5t6.5 12.5t-3.5 12.5q-4 4 -11 4q-12 -3 -23.5 -12t-23.5 -16q-18 -13 -38 -13.5t-37 4.5q-14 4 -29 14
t-19 28q-3 18 2 39.5t23 35.5q8 7 18 12.5t18 10.5q11 5 22 11.5t13 23.5v9q3 -3 10.5 -12.5t3.5 -18.5q-2 -5 -9.5 -11t-12.5 -9q-9 -6 -19.5 -12.5t-19.5 -14t-14.5 -16.5t-3.5 -20q2 -17 16.5 -18.5t24.5 1.5q18 4 30.5 13.5t22 21.5t18 24.5t19.5 21.5q9 8 20.5 16
t23.5 11q13 3 29 2.5t31 -5.5t28 -15.5t21 -28.5t0 -36.5t-23 -38.5q-5 -6 -9.5 -11t-2.5 -13q2 -6 8 -9.5t10 -5.5q24 -3 50 10q15 8 32 18.5t32 8.5q7 -2 17.5 -6.5t19.5 -12t16 -16.5t9 -19q4 -19 -1.5 -37t-5.5 -35q0 -5 3 -9.5t6.5 -9t6 -9.5t2.5 -10q0 -4 -6 -9
t-5 -10q0 -4 2.5 -7.5t4.5 -6.5q2 -6 -4.5 -13t-5.5 -11q5 -8 10 -12t1 -12q-7 -11 -7 -19q27 15 42.5 26.5t19.5 28.5q0 3 -0.5 6.5t-2.5 5.5q-6 3 -11 -4q-1 -3 -2 -7t-3 -4q-4 0 -2.5 7.5t2.5 9.5q4 9 12.5 9t13.5 -6zM593 391q2 9 6 22.5t0 24.5q-3 10 -12 14t-17 1
q-8 -2 -16.5 -9.5t-11.5 -13.5q-17 -25 -31.5 -50.5t-16.5 -51.5q9 9 19.5 22t22 25t22 20t18.5 7q4 -1 8.5 -3.5t8.5 -7.5zM316 612q-16 -11 -28 -23t-20 -25q11 9 23 18.5t24 15.5t25 7t25 -6q8 -5 17.5 -14.5t9.5 -33.5q0 -12 -6.5 -21.5t-15 -19t-17.5 -19t-16 -19.5
q-2 -4 -4 -9.5t-2 -9.5q-2 -6 1.5 -15.5t6.5 -14.5q3 -3 8.5 -5.5t9.5 -3.5q11 -1 24 0.5t26 3.5q7 1 16 1.5t15 -1.5q26 -7 37 -32t15 -52q3 15 10 29.5t14 27t13.5 22t8.5 13.5q5 8 13 16t16.5 12t17.5 2.5t16 -11.5q-2 6 -3 12.5t-5 11.5q-7 8 -19.5 15t-22.5 12
q-18 6 -42 -7q-17 -11 -36.5 -20.5t-39.5 -7.5q-7 1 -16 6.5t-12 16.5q-2 7 4 14t11 12q10 12 18.5 27.5t6.5 29.5t-11 25t-21 18.5t-26 11t-25 2.5q-11 0 -22.5 -2t-21.5 -10zM347 301q1 17 13.5 34t30.5 25q6 2 11 4t13 0q18 -3 36 -7.5t35 -18.5q-2 19 -9 38t-24 33
q-14 10 -30 7.5t-32 -3.5q-9 -2 -19.5 -2t-18.5 2q-13 3 -19.5 15.5t-5.5 24.5q1 11 8.5 21.5t16.5 20.5t18.5 19.5t14.5 19.5q7 17 2 31.5t-9 18.5q-9 10 -20.5 15t-23.5 2q-9 -2 -20 -8t-22 -13.5t-20.5 -15.5t-15.5 -15q-11 -14 -28 -24.5t-34 -11.5q-5 -1 -13 -1.5
t-13 2.5q-6 3 -10.5 10.5t-4.5 13.5q0 14 7.5 24t18.5 18.5t24 16t22 16.5q8 7 10 12.5t-7 16.5q1 -12 -6.5 -20.5t-19 -15.5t-25 -14t-23.5 -16q-9 -8 -14 -19t-6 -21q-1 -14 2 -29.5t18 -24.5q20 -12 45.5 -14t47.5 12q7 4 16 10.5t18 11.5t17.5 6.5t13.5 -4.5
q7 -7 6.5 -13.5t-4.5 -12.5t-10 -12t-9 -12q-8 -12 -8.5 -32t13.5 -34q4 -3 10.5 -6.5t13 -7.5t11.5 -9.5t5 -13.5q0 -4 -3 -8t-6 -7.5t-5.5 -7.5t-1.5 -9q2 -8 9.5 -12t12.5 -6zM365 222q5 -1 10.5 -2t10.5 -3q1 21 6 41.5t19 40.5q-15 14 -16 31t8 30q-19 -4 -33.5 -19.5
t-18.5 -32.5q-2 -5 0 -8t5 -8q6 -12 -5 -23q-9 -8 -1.5 -10.5t13.5 -7.5q10 -10 5 -22q-1 -1 -4 -1q1 -3 1 -6zM384 184v12.5t2 12.5q-5 1 -9 2t-9 2q2 -6 3.5 -12t3.5 -12q4 -5 9 -5zM585 151q5 5 10.5 12t5.5 17q0 3 -2 8t-3 9q-1 2 -1 4.5t-2 4.5q-2 10 -4 18
q-14 -8 -28.5 -15t-26.5 -12q-5 -3 -6 -1t4 5q13 8 27 14.5t30 14.5q-1 5 -1 10.5t-1 10.5v16q-2 4 -2 8.5v8.5q-1 5 -2 9l-2 8q-3 8 -8.5 12t-10.5 8q12 8 8 21.5t-9 25.5q-13 -7 -23 -14t-24 -16q-4 -3 -8.5 -7.5t-7.5 -6.5q-6 -2 -9 3q-11 13 -29 20.5t-32 11.5
q-12 2 -15.5 1t-8.5 -9q-6 -13 -2 -26t14 -26q-14 -18 -19 -39.5t-6 -43.5q2 0 4.5 -1t4.5 -2q18 -4 43 -7t47 -6q8 -2 8.5 -4.5t-5.5 -3.5q-24 3 -50.5 6.5t-51.5 9.5v-7v-13.5t-3 -10.5q-2 -2 -8.5 1.5t-8.5 5.5l-2 4t-1 5q-8 0 -13 -4.5t-7 -11t-1.5 -13.5t4.5 -13
q4 -7 13 -8t15 4q3 2 7.5 5.5t7.5 9.5q1 2 3 -2l3 -6q11 -12 25 -19.5t36 -9.5q35 -2 68.5 3.5t55.5 22.5zM607 221q1 -2 2.5 -4.5t-0.5 -3.5q-1 -3 -5 -4.5t-7 -3.5q2 -6 4.5 -11.5t3.5 -12.5q10 -5 18 -0.5t12 12t3 16t-9 13.5q-5 2 -11 2t-11 -3zM605 216q-4 7 -5 13
q-1 -1 -2.5 -2t-2.5 -2l2 -15q2 2 4 3t4 3zM601 252q2 4 4 6.5t2 5.5q1 6 -2.5 8t-5.5 7q-5 5 -1.5 9.5t6.5 10.5q4 7 -0.5 11.5t-4.5 12.5q-2 5 4 10t6 10q-1 7 -7.5 14t-8.5 15q-1 3 0.5 7t-0.5 7q-2 6 -10 9.5t-13 2.5q-6 -1 -15 -8.5t-18 -17.5t-17.5 -20.5t-14.5 -16.5
q11 10 20.5 16.5t19.5 14.5q7 5 15 10t13 0q-2 0 -3 -1q-2 -1 -2.5 -2t-1.5 -2q8 -12 10 -25.5t-6 -24.5q16 -13 17.5 -30t3.5 -32q1 -6 1.5 -13t0.5 -13q2 1 3 2t3 1q0 4 0.5 7.5t1.5 8.5zM458 252q6 0 4 -6q0 -5 -5 -5q-6 2 -6 7q3 4 7 4zM462 249q0 -1 -0.5 -1t-0.5 -1
v-1q-3 0 -3 3l1 1q1 1 2 1zM553 246q-5 0 -5 6q0 5 5 5t5 -5q0 -6 -5 -6zM553 255v-2q0 -1 1 -1q3 0 3 3h-1q-1 0 -1 0.5t-1 0.5zM526 189q2 -2 -1.5 -1.5t-8.5 -1.5q-5 -1 -7.5 -2.5t-3.5 1.5q0 6 9 8q12 2 12 -4zM517 184q12 2 12 0t-11 -2q-4 -1 -7.5 -2.5t-3.5 0.5
q0 1 10 4zM399 114q3 0 3 -1q1 0 1 -3v-30q0 -2 -1 -2q0 -2 -3 -2h-1v2q-2 0 -2 2v2l-2 -3q-2 -1 -3 -1q-1 -2 -4 -2t-4 2q-1 1 -2 1t-2 1q0 2 -0.5 2.5t-0.5 1.5q-2 3 -2 7q0 3 1 5l2 4q3 3 8 3h5q2 -1 2.5 -2t1.5 -2v11q0 3 2 3q0 1 1 1zM395 86q1 1 1 4q0 4 -1 5
q0 3 -3 3q0 1 -2 1q-3 0 -4 -1q0 -2 -1 -2t-1 -1q-1 -1 -1 -5q0 -3 1 -4q0 -3 3 -3q0 -1 3 -1q2 0 2 1q3 0 3 3zM430 88q1 0 2 -1q0 -1 1 -1t1 -2l-1 -1q-1 0 -1 -1q-1 0 -1 -1t-1 -2q0 -1 -1 -1h-3q-2 -2 -4 -2q-5 0 -7 1t-4 3q-1 2 -2 4.5t-1 5.5q0 5 2 8l4 4l4 2t4 1
q1 0 1.5 -1t2.5 -1q1 0 1.5 -0.5t2.5 -0.5q1 -3 2 -3v-3v-2h-2h-2l-1 1t-1 2t-2 1l-2 1q-3 0 -6 -3q-1 -1 -1 -6v-3v-2q0 -1 1 -1q2 -1 3 -2h3q2 0 2 1q3 0 3 3q1 0 1 1h2v1zM461 100q0 -1 2 -5q0 -1 1 -2t1 -3t-1 -3t-1 -3l-2 -4l-4 -2q-2 -2 -6 -2t-5 2q-3 0 -5 2
q0 1 -3 4v6v6q1 2 2 2.5t1 1.5q1 2 5 3q1 0 2 1t3 1t3 -1t3 -1q1 -1 1.5 -1t2.5 -2zM455 84q3 3 3 6q0 4 -3 6q-2 3 -4 3t-4 -1q1 0 -2 -3v-5v-4q1 -3 2 -3q2 -1 4 -1t4 2zM487 82l3 -3l-1 -1q-2 -2 -3 -2h-1v2q-2 0 -2 0.5t-1 0.5l-4 8l-5 -8l-2 -1q-1 -2 -2 -2h-1
q-1 0 -1 2q-1 0 -1 1t1 3l7 9l-5 7q-2 1 -2 4v1q2 0 2 1t1 1l1 -2q1 0 3 -3l4 -5l4 5v2l1 1q2 0 2 1t1 1l1 -2q1 0 2 -1v-2q0 -1 -1 -1t-1 -1l-5 -7zM516 102q1 0 1 -2l-1 -1v-1l-9 -23q-2 -2 -2 -5q-2 0 -2 -1t-1 -1q-1 -1 -5 -1h-4q-2 1 -2 3v1q2 1 3 1h1h2h1l1 2v1l2 1v2
l-8 20l-1 1q-1 0 -1 1q0 2 1 2h1q0 1 1 1v1l1 1q1 0 2 -1v-1q1 -1 1 -3l7 -16l5 15q0 3 1 3v1q2 0 2 1t1 1v-1q0 -1 2 -1v-1zM521 84l2 -1h1q1 -1 1 -3t-1 -2q0 -2 -3 -2h-1l-2 2v2v3h2zM556 87q0 -1 0.5 -1t0.5 -2l-1 -2l-3 -3l-1 -1h-2q-2 -2 -5 -2q-5 0 -11 4q-2 6 -2 10
q0 5 1 8q1 1 2 1.5t2 2.5l4 2t4 1q1 0 2 -1t2 -1t2 -0.5t2 -0.5q1 -3 3 -3v-3v-2h-3h-1h-1q-1 0 -1 1q0 3 -2 3h-1q-1 0 -2 1q-4 0 -5 -3q-2 -1 -2 -6v-3q0 -1 1 -2q0 -1 1 -1l2 -2h3q3 0 3 1q2 0 2 3h2v1q1 0 1 0.5t1 0.5zM584 100q1 -1 1 -2t2 -3q0 -1 0.5 -2t0.5 -3
t-0.5 -3t-0.5 -3q-1 -1 -3 -4l-4 -2q-2 -2 -6 -2t-5 2q-3 0 -5 2q0 1 -3 4v6v6q1 2 2 2.5t1 1.5q1 2 5 3q1 0 2 1t3 1t3 -1t3 -1q1 -1 1.5 -1t2.5 -2zM578 84q3 3 3 6q0 4 -3 6q-2 3 -4 3t-4 -1q1 0 -2 -3v-5v-4q1 -3 2 -3q2 -1 4 -1t4 2zM627 103q2 -2 2 -4q2 -1 2 -5v-14
q0 -1 -2 -2l-1 -1q0 -1 -1 -1q-2 0 -2 1t-1 1v2v12v3q-1 0 -1 2v1q-2 0 -2 0.5t-1 0.5t-1 -0.5t-2 -0.5q-1 0 -1 -3q-1 0 -1 -5v-10q0 -1 -2 -2l-1 -2q-1 0 -2 1q-1 0 -1 1q-1 1 -1 2v11v4q0 3 -1 3h-1q-1 0 -2 1q-3 0 -4 -3q0 -1 -0.5 -2.5t-0.5 -3.5v-10v-2q-2 0 -2 -1
t-1 -1t-2 1q-1 0 -1 1t-0.5 1t-0.5 1v20q0 2 1 3l1 1q1 0 1 0.5t1 0.5l1 -2q2 -1 2 -3v-1q1 1 1.5 2t2.5 2h4h4q1 -1 1.5 -2t2.5 -2q0 2 2 4h4h6z" />
    <glyph glyph-name="grave" unicode="`" horiz-adv-x="369" 
d="M257 477q11 -6 10.5 -16t-18.5 -15q-10 -3 -27 -3t-35 2.5t-35 7t-28 11.5q-20 13 -22.5 33t5 36t21.5 22t28 -10q31 -35 60.5 -48.5t40.5 -19.5z" />
    <glyph glyph-name="acute" unicode="&#xb4;" horiz-adv-x="365" 
d="M110 477q11 6 40.5 19.5t60.5 48.5q14 16 28 10t21.5 -22t4.5 -36t-22 -33q-11 -7 -28 -11.5t-35 -7t-35 -2.5t-27 3q-18 5 -18.5 15t10.5 16z" />
    <glyph glyph-name="circumflex" unicode="&#x2c6;" horiz-adv-x="366" 
d="M265 482q4 -12 -3.5 -21.5t-20 -15t-25 -4t-18.5 12.5q-8 14 -10 23t-7 16q-6 -6 -8.5 -19t-4.5 -19q-3 -9 -15 -11.5t-24.5 0.5t-21.5 11.5t-5 21.5t11 27.5t16.5 26.5t22.5 20.5t29 8.5q15 1 28.5 -7.5t24.5 -20.5t19 -26t12 -24z" />
    <glyph glyph-name="dieresis" unicode="&#xa8;" horiz-adv-x="349" 
d="M135 528q14 0 24.5 -12.5t10.5 -30.5t-10.5 -30.5t-24.5 -12.5t-24.5 12.5t-10.5 30.5t10.5 30.5t24.5 12.5zM214 528q15 0 25 -12.5t10 -30.5t-10 -30.5t-25 -12.5q-14 0 -24.5 12.5t-10.5 30.5t10.5 30.5t24.5 12.5z" />
    <glyph glyph-name="tilde" unicode="&#x2dc;" horiz-adv-x="360" 
d="M220 523q13 6 24.5 -2t17 -22t2 -29.5t-20.5 -24.5q-13 -7 -24.5 -5t-23.5 5.5t-25 5t-28 -5.5q-15 -8 -25.5 1.5t-14 25.5t1.5 32.5t21 22.5q20 7 31 4.5t19.5 -7t18 -7t26.5 5.5z" />
    <glyph glyph-name="ring" unicode="&#x2da;" horiz-adv-x="356" 
d="M178 548q33 0 56.5 -15.5t23.5 -37.5t-23.5 -37.5t-56.5 -15.5q-34 0 -57.5 15.5t-23.5 37.5t23.5 37.5t57.5 15.5zM178 475q8 0 13 3.5t5 8.5t-5 8.5t-13 3.5q-19 0 -19 -12t19 -12z" />
    <glyph glyph-name="endash" unicode="&#x2013;" horiz-adv-x="643" 
d="M121 300h356q21 0 35.5 -10t22 -25t8 -33t-6.5 -33t-21 -25t-35 -10h-54t-70.5 0.5t-77 1t-74 1t-61.5 0.5h-39q-27 0 -41 21t-13 45.5t18 45.5t53 21z" />
    <glyph glyph-name="emdash" unicode="&#x2014;" horiz-adv-x="805" 
d="M120 300h520q21 0 35.5 -10t22 -25t8 -33t-6.5 -33t-21 -25t-35 -10h-66t-101 0.5t-116.5 1t-113.5 1t-92 0.5h-51q-27 0 -41 21t-13 45.5t18 45.5t53 21z" />
    <glyph glyph-name="equal" unicode="=" horiz-adv-x="361" 
d="M42 203q-21 0 -32.5 21t-10.5 45.5t14.5 45.5t41.5 21h207q25 0 38 -21t13.5 -46t-12 -46t-37.5 -21h-57t-64 0.5t-59 0.5h-42zM262 134q25 0 38 -21t13.5 -46t-12 -46t-37.5 -21h-57t-64 0.5t-59 0.5h-42q-21 0 -32.5 21t-10.5 45.5t14.5 45.5t41.5 21h207z" />
    <glyph glyph-name="plus" unicode="+" horiz-adv-x="543" 
d="M411 351q26 0 44 -15.5t27 -39t9.5 -50.5t-7.5 -50.5t-25.5 -39t-43.5 -15.5h-64v-60q0 -26 -15.5 -44t-39 -27t-50.5 -9.5t-50.5 7.5t-39 25.5t-15.5 43.5v65h-74q-22 0 -37.5 15.5t-23 38.5t-7 50.5t10.5 50.5t29 38.5t48 15.5h55v74q0 22 15.5 37t38.5 22.5t50.5 7
t50.5 -10.5t38.5 -29t15.5 -48v-53h60v0z" />
    <glyph glyph-name="multiply" unicode="&#xd7;" horiz-adv-x="478" 
d="M406 171q18 -18 20 -42t-8 -46.5t-29 -42.5t-41 -30.5t-45.5 -9.5t-41.5 20q-11 10 -22 21.5t-24 23.5l-42 -42q-18 -18 -42 -20t-47 8t-42.5 29t-30 41t-9.5 45t20 42q20 21 46 46l-30.5 30.5t-21.5 22.5q-16 15 -16 37t11.5 43.5t31 40.5t42.5 28.5t47 7t45 -23.5
l39 -39q17 17 30 30.5t22 22.5q16 15 37.5 15t43.5 -11t40.5 -31t28 -43t7 -47.5t-22.5 -44.5l-38 -38q13 -14 23.5 -24.5z" />
    <glyph glyph-name="divide" unicode="&#xf7;" horiz-adv-x="280" 
d="M114 125q24 0 44.5 -5t36 -13.5t24.5 -20t9 -24.5t-9 -24t-24.5 -19.5t-36 -13.5t-44.5 -5t-44.5 5t-36 13.5t-24.5 19.5t-9 24t9 24.5t24.5 20t36 13.5t44.5 5zM114 250q-24 0 -44.5 5t-36 13.5t-24.5 20t-9 24.5t9 24t24.5 19.5t36 13.5t44.5 5t44.5 -5t36 -13.5
t24.5 -19.5t9 -24t-9 -24.5t-24.5 -20t-36 -13.5t-44.5 -5z" />
    <glyph glyph-name="minus" unicode="&#x2212;" horiz-adv-x="413" 
d="M88 318q37 0 89.5 -1t104.5 -1q26 0 44 -12.5t27 -31t9.5 -40.5t-7.5 -40.5t-25.5 -31t-43.5 -12.5h-70t-56.5 0.5t-47.5 0.5h-45q-22 0 -37.5 12.5t-23 31.5t-6.5 40.5t11 40.5t29 31.5t48 12.5z" />
    <glyph glyph-name="numbersign" unicode="#" horiz-adv-x="281" 
d="M196 471q-2 1 -4 1t-4 1q-2 -9 -3 -18.5t-3 -19.5q2 0 2.5 -0.5t2.5 -0.5q18 -3 25.5 -12t6 -18.5t-11 -15.5t-27.5 -3q-2 0 -3.5 0.5t-3.5 0.5q-1 -2 -1 -5q-3 -18 -12.5 -25.5t-18.5 -6.5t-15 11t-3 27q0 2 0.5 4t0.5 4q-10 2 -19 3.5t-19 3.5q0 -4 -1 -6
q-3 -18 -12 -25.5t-18.5 -6t-15.5 11t-3 27.5q1 2 1 4t1 4q-4 1 -7 1t-5 1q-15 3 -21 11.5t-4 17.5t12.5 15t30.5 3q0 -1 2 -1q2 10 3.5 19.5t3.5 18.5q-8 2 -12 2q-15 3 -21 11.5t-4 17.5t12.5 15t30.5 3h3q2 8 2 11q3 15 11.5 21.5t17.5 4.5t15 -13t3 -30q0 -2 -1 -3
q10 -2 19.5 -3.5t19.5 -3.5q0 6 2 12q3 15 11.5 21t17.5 4t15 -13t2 -30v-2q2 -1 6 -1q17 -3 24.5 -12.5t6.5 -19t-11 -15.5t-27 -3zM133 444q2 9 3.5 18.5t3.5 19.5q-10 2 -19.5 3t-18.5 3q-2 -9 -3.5 -18.5t-3.5 -19.5q9 -2 18.5 -3t19.5 -3z" />
    <glyph glyph-name="asterisk" unicode="*" horiz-adv-x="291" 
d="M200 502q19 0 29 -8.5t10.5 -18t-9 -18t-28.5 -8.5h-20q5 -6 9.5 -10.5l7.5 -7.5q11 -12 11 -23.5t-7.5 -18.5t-20.5 -5t-28 17q-2 2 -3.5 4t-3.5 4v-14q0 -19 -8.5 -29t-18.5 -10.5t-18.5 9t-8.5 28.5v16l-10 -10q-13 -14 -26 -15.5t-20.5 5.5t-7 19.5t13.5 26.5
q4 3 7 6.5t7 7.5h-24q-17 0 -25.5 8.5t-8 18t11 18t32.5 8.5h14q-9 9 -12 13q-14 14 -14.5 27t6.5 20t19.5 6t25.5 -15q3 -2 5.5 -5t5.5 -7q1 7 1 12v9q0 16 8.5 25t18 8.5t18 -11t8.5 -31.5v-12q11 11 14 15q11 12 23 12t19 -7t6 -20.5t-16 -28.5l-4.5 -4.5l-5.5 -5.5h17v0
z" />
    <glyph glyph-name="parenleft" unicode="(" horiz-adv-x="250" 
d="M85 -24q-26 33 -45 83.5t-29.5 110t-11 125t9.5 128.5t31.5 119.5t56.5 99.5q14 17 36.5 23t41 0.5t26 -23t-7.5 -47.5q-42 -82 -61 -164.5t-19.5 -158t15.5 -139.5t45 -109q13 -20 7 -38.5t-21 -27.5t-36 -6.5t-38 24.5z" />
    <glyph glyph-name="parenright" unicode=")" horiz-adv-x="254" 
d="M118 -24q-17 -22 -38 -24.5t-36 6.5t-21 27.5t7 38.5q28 45 44.5 109t16 139.5t-19.5 158t-61 164.5q-15 30 -7.5 47.5t26 23t41 -0.5t36.5 -23q35 -43 56.5 -99.5t31.5 -119.5t9.5 -128.5t-11 -125t-29.5 -110t-45 -83.5z" />
    <glyph glyph-name="guillemotleft" unicode="&#xab;" horiz-adv-x="335" 
d="M111 252q19 -10 27 -23.5t4.5 -24t-18 -14.5t-41.5 4q-13 4 -28 14.5t-27 23.5t-20 27t-8 25q0 9 9.5 19.5t22.5 21t27.5 19t24.5 13.5q19 9 36 3t24.5 -19t0.5 -28.5t-36 -24.5q-14 -5 -22.5 -7.5t-16.5 -6.5q3 -3 9 -6.5t12 -6.5t11.5 -5.5t8.5 -3.5zM247 248
q19 -10 27 -23.5t4.5 -24t-18 -14.5t-41.5 4q-13 4 -28 14.5t-27 23.5t-20 27t-8 25q0 9 9.5 19.5t22.5 21t27.5 19t24.5 13.5q19 9 36 3t24.5 -19t0.5 -28.5t-36 -24.5q-14 -5 -23 -7.5t-16 -6.5q3 -3 9 -6.5t12 -6.5t11.5 -5.5t8.5 -3.5z" />
    <glyph glyph-name="guillemotright" unicode="&#xbb;" horiz-adv-x="335" 
d="M175 252q3 1 8.5 3.5t11.5 5.5t12 6.5t9 6.5q-8 4 -16.5 6.5t-22.5 7.5q-29 9 -36 24.5t0.5 28.5t24.5 19t36 -3q10 -5 24.5 -13.5t27.5 -19t22.5 -21t9.5 -19.5q0 -11 -8 -25t-20 -27t-27 -23.5t-28 -14.5q-27 -8 -41.5 -4t-18 14.5t4.5 24t27 23.5zM39 248q3 1 8.5 3.5
t11.5 5.5t12 6.5t9 6.5q-7 4 -16 6.5t-23 7.5q-29 9 -36 24.5t0.5 28.5t24.5 19t36 -3q10 -5 24.5 -13.5t27.5 -19t22.5 -21t9.5 -19.5q0 -11 -8 -25t-20 -27t-27 -23.5t-28 -14.5q-27 -8 -41.5 -4t-18 14.5t4.5 24t27 23.5z" />
    <glyph glyph-name="exclamdown" unicode="&#xa1;" horiz-adv-x="319" 
d="M0 -143.991q0 -35.998 20.5 -59.9961q20.5 -23.999 51.5 -35.498t67 -10.999t66 12.999t48.5 36.998q18.5 24.498 15.5 60.4961q-2 25.998 -6 62.9961q-4 36.9971 -8.5 78.9951q-4.5 41.9971 -9 84.9951q-4.5 42.9971 -8.5 80.9951q-5 46.9971 -22 77.9951t-40 45.9971
t-48.5 13.999t-48.5 -17.999t-39 -49.4971t-20 -81.4951q-2 -28.998 -5 -68.9961q-3 -39.9971 -6 -81.4941q-3 -41.498 -5.5 -81.4951q-2.5 -39.998 -2.5 -68.9961zM129 326.98q40 0 68 18.498q28 18.499 28 44.498q0 25.998 -28 43.9971t-68 17.999t-68 -17.999
t-28 -43.9971q0 -25.999 28 -44.498q28 -18.498 68 -18.498z" />
    <glyph glyph-name="questiondown" unicode="&#xbf;" horiz-adv-x="555" 
d="M0 -70.9961q-3 61.9971 8 98.9941q10.999 36.998 29.998 59.9961q18.998 22.999 41.4971 36.998t41.9971 28.998q19.499 14.999 31.498 35.998q12 20.999 10 57.9961q-1 21.999 14.999 36.998t40.9971 23.499q24.999 8.49902 53.9971 9.49902t53.9971 -4
q24.998 -4.99902 42.4971 -16.999q17.499 -11.999 17.499 -30.998q1 -40.9971 -13.499 -68.9951q-14.499 -27.999 -35.498 -48.4971q-20.999 -20.499 -45.9971 -36.498q-24.999 -15.999 -45.9971 -32.998q-20.999 -16.999 -34.998 -38.498q-13.999 -21.498 -12.999 -52.4961
q1 -27.999 17.499 -43.498t36.9971 -12.499q20.499 3 39.498 26.499q18.999 23.498 23.998 73.4951q3 21.999 17.999 35.498t35.998 19.499q20.999 5.99902 44.9971 3.99902q23.999 -2 44.4971 -11.499q20.499 -9.49902 33.998 -26.498t13.499 -41.998
q0 -65.9961 -19.998 -114.493q-19.999 -48.4961 -54.4971 -79.9951q-34.498 -31.498 -79.4951 -47.4971t-95.9941 -18.998q-62.9961 -3 -110.493 10.499t-79.4951 38.498q-31.998 24.998 -48.4971 58.9961t-18.499 70.9951zM271.983 328.979q-23.999 0 -44.4971 5
q-20.499 5 -35.998 13.499q-15.499 8.5 -24.498 19.999q-9 11.499 -9 24.499q0 12.999 9 23.998q8.99902 10.999 24.498 19.499q15.499 8.49902 35.998 13.499q20.498 5 44.4971 5t44.4971 -5q20.499 -5 35.998 -13.499q15.499 -8.5 24.498 -19.499q9 -10.999 9 -23.998
q0 -13 -9 -24.499q-8.99902 -11.499 -24.498 -19.999q-15.499 -8.49902 -35.998 -13.499q-20.498 -5 -44.4971 -5z" />
    <glyph glyph-name="Agrave" unicode="&#xc0;" horiz-adv-x="565" 
d="M518 97q2 -32 -12 -53t-36 -31t-48.5 -10.5t-49 8.5t-37.5 27t-14 45q0 2 -0.5 11.5t-0.5 26.5q-23 -2 -47 -3.5t-45 0.5v-10q0 -37 -16 -60.5t-40.5 -35t-53.5 -12t-53.5 8t-41.5 26t-17 41.5q-2 27 -3.5 56.5t-2 57.5t-0.5 51v36q-1 120 14.5 201t48 130.5t80.5 72
t113 24.5q58 2 102.5 -18t75.5 -58t49.5 -93t26.5 -122q4 -31 5 -76t1.5 -91t0.5 -87t1 -63zM222 272q23 -2 49 -3t46 -2q0 10 -0.5 20.5t-0.5 21.5q0 55 -15 84t-32.5 29t-32 -31.5t-14.5 -97.5v-21zM355 763q11 -6 10.5 -16t-18.5 -15q-10 -3 -27 -3t-35 2.5t-35 7
t-28 11.5q-20 13 -22.5 33t5 36t21.5 22t28 -10q31 -35 60.5 -48.5t40.5 -19.5z" />
    <glyph glyph-name="Aacute" unicode="&#xc1;" horiz-adv-x="565" 
d="M518 97q2 -32 -12 -53t-36 -31t-48.5 -10.5t-49 8.5t-37.5 27t-14 45q0 2 -0.5 11.5t-0.5 26.5q-23 -2 -47 -3.5t-45 0.5v-10q0 -37 -16 -60.5t-40.5 -35t-53.5 -12t-53.5 8t-41.5 26t-17 41.5q-2 27 -3.5 56.5t-2 57.5t-0.5 51v36q-1 120 14.5 201t48 130.5t80.5 72
t113 24.5q58 2 102.5 -18t75.5 -58t49.5 -93t26.5 -122q4 -31 5 -76t1.5 -91t0.5 -87t1 -63zM222 272q23 -2 49 -3t46 -2q0 10 -0.5 20.5t-0.5 21.5q0 55 -15 84t-32.5 29t-32 -31.5t-14.5 -97.5v-21zM187 763q11 6 40.5 19.5t60.5 48.5q14 16 28 10t21.5 -22t4.5 -36
t-22 -33q-11 -7 -28 -11.5t-35 -7t-35 -2.5t-27 3q-18 5 -18.5 15t10.5 16z" />
    <glyph glyph-name="Acircumflex" unicode="&#xc2;" horiz-adv-x="565" 
d="M518 97q2 -32 -12 -53t-36 -31t-48.5 -10.5t-49 8.5t-37.5 27t-14 45q0 2 -0.5 11.5t-0.5 26.5q-23 -2 -47 -3.5t-45 0.5v-10q0 -37 -16 -60.5t-40.5 -35t-53.5 -12t-53.5 8t-41.5 26t-17 41.5q-2 27 -3.5 56.5t-2 57.5t-0.5 51v36q-1 120 14.5 201t48 130.5t80.5 72
t113 24.5q58 2 102.5 -18t75.5 -58t49.5 -93t26.5 -122q4 -31 5 -76t1.5 -91t0.5 -87t1 -63zM222 272q23 -2 49 -3t46 -2q0 10 -0.5 20.5t-0.5 21.5q0 55 -15 84t-32.5 29t-32 -31.5t-14.5 -97.5v-21zM346 768q4 -12 -3.5 -21.5t-20 -15t-25 -4t-18.5 12.5q-8 14 -10 23
t-7 16q-6 -6 -8.5 -19t-4.5 -19q-3 -9 -15 -11.5t-24.5 0.5t-21.5 11.5t-5 21.5t11 27.5t16.5 26.5t22.5 20.5t29 8.5q15 1 28.5 -7.5t24.5 -20.5t19 -26t12 -24z" />
    <glyph glyph-name="Atilde" unicode="&#xc3;" horiz-adv-x="565" 
d="M518 97q2 -32 -12 -53t-36 -31t-48.5 -10.5t-49 8.5t-37.5 27t-14 45q0 2 -0.5 11.5t-0.5 26.5q-23 -2 -47 -3.5t-45 0.5v-10q0 -37 -16 -60.5t-40.5 -35t-53.5 -12t-53.5 8t-41.5 26t-17 41.5q-2 27 -3.5 56.5t-2 57.5t-0.5 51v36q-1 120 14.5 201t48 130.5t80.5 72
t113 24.5q58 2 102.5 -18t75.5 -58t49.5 -93t26.5 -122q4 -31 5 -76t1.5 -91t0.5 -87t1 -63zM222 272q23 -2 49 -3t46 -2q0 10 -0.5 20.5t-0.5 21.5q0 55 -15 84t-32.5 29t-32 -31.5t-14.5 -97.5v-21zM305 809q13 6 24.5 -2t17 -22t2 -29.5t-20.5 -24.5q-13 -7 -24.5 -5
t-23.5 5.5t-25 5t-28 -5.5q-15 -8 -25.5 1.5t-14 25.5t1.5 32.5t21 22.5q20 7 31 4.5t19.5 -7t18 -7t26.5 5.5z" />
    <glyph glyph-name="Adieresis" unicode="&#xc4;" horiz-adv-x="565" 
d="M518 97q2 -32 -12 -53t-36 -31t-48.5 -10.5t-49 8.5t-37.5 27t-14 45q0 2 -0.5 11.5t-0.5 26.5q-23 -2 -47 -3.5t-45 0.5v-10q0 -37 -16 -60.5t-40.5 -35t-53.5 -12t-53.5 8t-41.5 26t-17 41.5q-2 27 -3.5 56.5t-2 57.5t-0.5 51v36q-1 120 14.5 201t48 130.5t80.5 72
t113 24.5q58 2 102.5 -18t75.5 -58t49.5 -93t26.5 -122q4 -31 5 -76t1.5 -91t0.5 -87t1 -63zM222 272q23 -2 49 -3t46 -2q0 10 -0.5 20.5t-0.5 21.5q0 55 -15 84t-32.5 29t-32 -31.5t-14.5 -97.5v-21zM228 814q14 0 24.5 -12.5t10.5 -30.5t-10.5 -30.5t-24.5 -12.5
t-24.5 12.5t-10.5 30.5t10.5 30.5t24.5 12.5zM307 814q15 0 25 -12.5t10 -30.5t-10 -30.5t-25 -12.5q-14 0 -24.5 12.5t-10.5 30.5t10.5 30.5t24.5 12.5z" />
    <glyph glyph-name="Aring" unicode="&#xc5;" horiz-adv-x="565" 
d="M518 97q2 -32 -12 -53t-36 -31t-48.5 -10.5t-49 8.5t-37.5 27t-14 45q0 2 -0.5 11.5t-0.5 26.5q-23 -2 -47 -3.5t-45 0.5v-10q0 -37 -16 -60.5t-40.5 -35t-53.5 -12t-53.5 8t-41.5 26t-17 41.5q-2 27 -3.5 56.5t-2 57.5t-0.5 51v36q-1 120 14.5 201t48 130.5t80.5 72
t113 24.5q58 2 102.5 -18t75.5 -58t49.5 -93t26.5 -122q4 -31 5 -76t1.5 -91t0.5 -87t1 -63zM222 272q23 -2 49 -3t46 -2q0 10 -0.5 20.5t-0.5 21.5q0 55 -15 84t-32.5 29t-32 -31.5t-14.5 -97.5v-21zM269 834q33 0 56.5 -15.5t23.5 -37.5t-23.5 -37.5t-56.5 -15.5
q-34 0 -57.5 15.5t-23.5 37.5t23.5 37.5t57.5 15.5zM269 761q8 0 13 3.5t5 8.5t-5 8.5t-13 3.5q-19 0 -19 -12t19 -12z" />
    <glyph glyph-name="Egrave" unicode="&#xc8;" horiz-adv-x="570" 
d="M421 188q33 1 54.5 -13t31.5 -34.5t9.5 -45t-11 -46t-31 -35.5t-49.5 -14q-26 0 -71 -0.5t-92 -0.5h-88t-60 1q-32 1 -53.5 17.5t-35 41.5t-19.5 56t-6 62v356q0 31 6 61t19.5 54.5t35 40t53.5 17.5q19 1 60.5 1h88.5h91.5h70.5q30 0 51.5 -21t32.5 -52t11.5 -67.5
t-9.5 -68t-31.5 -52.5t-54.5 -21h-193q-27 0 -35 -9.5t-7 -34.5h69q20 0 42 1q15 0 24.5 -11t13.5 -28.5t3.5 -37.5t-6 -37.5t-15.5 -29.5t-24 -13q-10 -1 -24.5 -1.5t-30 -0.5t-30 0.5t-23.5 0.5q0 -3 -1 -9t-0.5 -12t3 -10.5t9.5 -4.5q43 0 102.5 -1t118.5 1zM356 763
q11 -6 10.5 -16t-18.5 -15q-10 -3 -27 -3t-35 2.5t-35 7t-28 11.5q-20 13 -22.5 33t5 36t21.5 22t28 -10q31 -35 60.5 -48.5t40.5 -19.5z" />
    <glyph glyph-name="Eacute" unicode="&#xc9;" horiz-adv-x="570" 
d="M421 188q33 1 54.5 -13t31.5 -34.5t9.5 -45t-11 -46t-31 -35.5t-49.5 -14q-26 0 -71 -0.5t-92 -0.5h-88t-60 1q-32 1 -53.5 17.5t-35 41.5t-19.5 56t-6 62v356q0 31 6 61t19.5 54.5t35 40t53.5 17.5q19 1 60.5 1h88.5h91.5h70.5q30 0 51.5 -21t32.5 -52t11.5 -67.5
t-9.5 -68t-31.5 -52.5t-54.5 -21h-193q-27 0 -35 -9.5t-7 -34.5h69q20 0 42 1q15 0 24.5 -11t13.5 -28.5t3.5 -37.5t-6 -37.5t-15.5 -29.5t-24 -13q-10 -1 -24.5 -1.5t-30 -0.5t-30 0.5t-23.5 0.5q0 -3 -1 -9t-0.5 -12t3 -10.5t9.5 -4.5q43 0 102.5 -1t118.5 1zM185 763
q11 6 40.5 19.5t60.5 48.5q14 16 28 10t21.5 -22t4.5 -36t-22 -33q-11 -7 -28 -11.5t-35 -7t-35 -2.5t-27 3q-18 5 -18.5 15t10.5 16z" />
    <glyph glyph-name="Ecircumflex" unicode="&#xca;" horiz-adv-x="570" 
d="M421 188q33 1 54.5 -13t31.5 -34.5t9.5 -45t-11 -46t-31 -35.5t-49.5 -14q-26 0 -71 -0.5t-92 -0.5h-88t-60 1q-32 1 -53.5 17.5t-35 41.5t-19.5 56t-6 62v356q0 31 6 61t19.5 54.5t35 40t53.5 17.5q19 1 60.5 1h88.5h91.5h70.5q30 0 51.5 -21t32.5 -52t11.5 -67.5
t-9.5 -68t-31.5 -52.5t-54.5 -21h-193q-27 0 -35 -9.5t-7 -34.5h69q20 0 42 1q15 0 24.5 -11t13.5 -28.5t3.5 -37.5t-6 -37.5t-15.5 -29.5t-24 -13q-10 -1 -24.5 -1.5t-30 -0.5t-30 0.5t-23.5 0.5q0 -3 -1 -9t-0.5 -12t3 -10.5t9.5 -4.5q43 0 102.5 -1t118.5 1zM352 768
q4 -12 -3.5 -21.5t-20 -15t-25 -4t-18.5 12.5q-8 14 -10 23t-7 16q-6 -6 -8.5 -19t-4.5 -19q-3 -9 -15 -11.5t-24.5 0.5t-21.5 11.5t-5 21.5t11 27.5t16.5 26.5t22.5 20.5t29 8.5q15 1 28.5 -7.5t24.5 -20.5t19 -26t12 -24z" />
    <glyph glyph-name="Edieresis" unicode="&#xcb;" horiz-adv-x="570" 
d="M421 188q33 1 54.5 -13t31.5 -34.5t9.5 -45t-11 -46t-31 -35.5t-49.5 -14q-26 0 -71 -0.5t-92 -0.5h-88t-60 1q-32 1 -53.5 17.5t-35 41.5t-19.5 56t-6 62v356q0 31 6 61t19.5 54.5t35 40t53.5 17.5q19 1 60.5 1h88.5h91.5h70.5q30 0 51.5 -21t32.5 -52t11.5 -67.5
t-9.5 -68t-31.5 -52.5t-54.5 -21h-193q-27 0 -35 -9.5t-7 -34.5h69q20 0 42 1q15 0 24.5 -11t13.5 -28.5t3.5 -37.5t-6 -37.5t-15.5 -29.5t-24 -13q-10 -1 -24.5 -1.5t-30 -0.5t-30 0.5t-23.5 0.5q0 -3 -1 -9t-0.5 -12t3 -10.5t9.5 -4.5q43 0 102.5 -1t118.5 1zM232 814
q14 0 24.5 -12.5t10.5 -30.5t-10.5 -30.5t-24.5 -12.5t-24.5 12.5t-10.5 30.5t10.5 30.5t24.5 12.5zM311 814q15 0 25 -12.5t10 -30.5t-10 -30.5t-25 -12.5q-14 0 -24.5 12.5t-10.5 30.5t10.5 30.5t24.5 12.5z" />
    <glyph glyph-name="Igrave" unicode="&#xcc;" horiz-adv-x="271" 
d="M1 595q1 39 18 62.5t41.5 33.5t52.5 7.5t52 -15.5t40 -35.5t16 -52.5v-449q0 -44 -16 -75.5t-40 -49t-52 -21t-52 10t-40.5 43.5t-17.5 79q0 19 -0.5 55t-1 81t-1 94t-0.5 94v81.5t1 56.5zM187 763q11 -6 10.5 -16t-18.5 -15q-10 -3 -27 -3t-35 2.5t-35 7t-28 11.5
q-20 13 -22.5 33t5 36t21.5 22t28 -10q31 -35 60.5 -48.5t40.5 -19.5z" />
    <glyph glyph-name="Iacute" unicode="&#xcd;" horiz-adv-x="271" 
d="M1 595q1 39 18 62.5t41.5 33.5t52.5 7.5t52 -15.5t40 -35.5t16 -52.5v-449q0 -44 -16 -75.5t-40 -49t-52 -21t-52 10t-40.5 43.5t-17.5 79q0 19 -0.5 55t-1 81t-1 94t-0.5 94v81.5t1 56.5zM40 763q11 6 40.5 19.5t60.5 48.5q14 16 28 10t21.5 -22t4.5 -36t-22 -33
q-11 -7 -28 -11.5t-35 -7t-35 -2.5t-27 3q-18 5 -18.5 15t10.5 16z" />
    <glyph glyph-name="Icircumflex" unicode="&#xce;" horiz-adv-x="271" 
d="M1 595q1 39 18 62.5t41.5 33.5t52.5 7.5t52 -15.5t40 -35.5t16 -52.5v-449q0 -44 -16 -75.5t-40 -49t-52 -21t-52 10t-40.5 43.5t-17.5 79q0 19 -0.5 55t-1 81t-1 94t-0.5 94v81.5t1 56.5zM189 768q4 -12 -3.5 -21.5t-20 -15t-25 -4t-18.5 12.5q-8 14 -10 23t-7 16
q-6 -6 -8.5 -19t-4.5 -19q-3 -9 -15 -11.5t-24.5 0.5t-21.5 11.5t-5 21.5t11 27.5t16.5 26.5t22.5 20.5t29 8.5q15 1 28.5 -7.5t24.5 -20.5t19 -26t12 -24z" />
    <glyph glyph-name="Idieresis" unicode="&#xcf;" horiz-adv-x="271" 
d="M1 595q1 39 18 62.5t41.5 33.5t52.5 7.5t52 -15.5t40 -35.5t16 -52.5v-449q0 -44 -16 -75.5t-40 -49t-52 -21t-52 10t-40.5 43.5t-17.5 79q0 19 -0.5 55t-1 81t-1 94t-0.5 94v81.5t1 56.5zM67 814q14 0 24.5 -12.5t10.5 -30.5t-10.5 -30.5t-24.5 -12.5t-24.5 12.5
t-10.5 30.5t10.5 30.5t24.5 12.5zM146 814q15 0 25 -12.5t10 -30.5t-10 -30.5t-25 -12.5q-14 0 -24.5 12.5t-10.5 30.5t10.5 30.5t24.5 12.5z" />
    <glyph glyph-name="Ntilde" unicode="&#xd1;" horiz-adv-x="574" 
d="M287 600q1 39 19.5 62.5t44.5 33.5t56.5 7t56.5 -16t43 -35.5t17 -51.5q0 -11 -1 -41t-2.5 -71t-3 -88.5t-3.5 -94t-3.5 -87l-2.5 -67.5q-3 -63 -23 -101t-50.5 -47t-69 13.5t-77.5 81.5q-12 17 -30.5 48t-41.5 69q-1 -20 -3 -36t-4 -28q-7 -45 -25 -77.5t-40.5 -50.5
t-47 -20.5t-45 11t-34 44t-13.5 79.5q0 19 -0.5 55.5t-1 81t-1.5 94t-1 94.5v81.5t1 56.5q1 45 25.5 71t57.5 32.5t66 -7.5t53 -49q4 -7 12.5 -23t20.5 -38.5t27 -50t32 -57.5q-4 41 -6 73t-2 49zM283 809q13 6 24.5 -2t17 -22t2 -29.5t-20.5 -24.5q-13 -7 -24.5 -5
t-23.5 5.5t-25 5t-28 -5.5q-15 -8 -25.5 1.5t-14 25.5t1.5 32.5t21 22.5q20 7 31 4.5t19.5 -7t18 -7t26.5 5.5z" />
    <glyph glyph-name="Ograve" unicode="&#xd2;" 
d="M265 704q63 0 107 -14.5t72 -40.5t43.5 -61t22.5 -76t8 -86.5t1 -91.5q0 -95 -20.5 -159t-55.5 -103t-82 -55.5t-101 -16.5t-101.5 18.5t-82.5 59t-55.5 104t-20.5 152.5q0 69 7.5 135.5t34.5 118.5t79.5 84t143.5 32zM266 153q29 0 47.5 12.5t28.5 33t13.5 47t3.5 55.5
q0 21 -3 43t-13 40t-27.5 30t-46.5 12q-27 0 -45 -12.5t-28.5 -31.5t-15 -41.5t-5.5 -43.5t3 -46.5t14 -47t28 -36t46 -14.5zM351 763q11 -6 10.5 -16t-18.5 -15q-10 -3 -27 -3t-35 2.5t-35 7t-28 11.5q-20 13 -22.5 33t5 36t21.5 22t28 -10q31 -35 60.5 -48.5t40.5 -19.5z
" />
    <glyph glyph-name="Oacute" unicode="&#xd3;" 
d="M265 704q63 0 107 -14.5t72 -40.5t43.5 -61t22.5 -76t8 -86.5t1 -91.5q0 -95 -20.5 -159t-55.5 -103t-82 -55.5t-101 -16.5t-101.5 18.5t-82.5 59t-55.5 104t-20.5 152.5q0 69 7.5 135.5t34.5 118.5t79.5 84t143.5 32zM266 153q29 0 47.5 12.5t28.5 33t13.5 47t3.5 55.5
q0 21 -3 43t-13 40t-27.5 30t-46.5 12q-27 0 -45 -12.5t-28.5 -31.5t-15 -41.5t-5.5 -43.5t3 -46.5t14 -47t28 -36t46 -14.5zM185 763q11 6 40.5 19.5t60.5 48.5q14 16 28 10t21.5 -22t4.5 -36t-22 -33q-11 -7 -28 -11.5t-35 -7t-35 -2.5t-27 3q-18 5 -18.5 15t10.5 16z" />
    <glyph glyph-name="Ocircumflex" unicode="&#xd4;" 
d="M265 704q63 0 107 -14.5t72 -40.5t43.5 -61t22.5 -76t8 -86.5t1 -91.5q0 -95 -20.5 -159t-55.5 -103t-82 -55.5t-101 -16.5t-101.5 18.5t-82.5 59t-55.5 104t-20.5 152.5q0 69 7.5 135.5t34.5 118.5t79.5 84t143.5 32zM266 153q29 0 47.5 12.5t28.5 33t13.5 47t3.5 55.5
q0 21 -3 43t-13 40t-27.5 30t-46.5 12q-27 0 -45 -12.5t-28.5 -31.5t-15 -41.5t-5.5 -43.5t3 -46.5t14 -47t28 -36t46 -14.5zM350 768q4 -12 -3.5 -21.5t-20 -15t-25 -4t-18.5 12.5q-8 14 -10 23t-7 16q-6 -6 -8.5 -19t-4.5 -19q-3 -9 -15 -11.5t-24.5 0.5t-21.5 11.5
t-5 21.5t11 27.5t16.5 26.5t22.5 20.5t29 8.5q15 1 28.5 -7.5t24.5 -20.5t19 -26t12 -24z" />
    <glyph glyph-name="Otilde" unicode="&#xd5;" 
d="M265 704q63 0 107 -14.5t72 -40.5t43.5 -61t22.5 -76t8 -86.5t1 -91.5q0 -95 -20.5 -159t-55.5 -103t-82 -55.5t-101 -16.5t-101.5 18.5t-82.5 59t-55.5 104t-20.5 152.5q0 69 7.5 135.5t34.5 118.5t79.5 84t143.5 32zM266 153q29 0 47.5 12.5t28.5 33t13.5 47t3.5 55.5
q0 21 -3 43t-13 40t-27.5 30t-46.5 12q-27 0 -45 -12.5t-28.5 -31.5t-15 -41.5t-5.5 -43.5t3 -46.5t14 -47t28 -36t46 -14.5zM307 809q13 6 24.5 -2t17 -22t2 -29.5t-20.5 -24.5q-13 -7 -24.5 -5t-23.5 5.5t-25 5t-28 -5.5q-15 -8 -25.5 1.5t-14 25.5t1.5 32.5t21 22.5
q20 7 31 4.5t19.5 -7t18 -7t26.5 5.5z" />
    <glyph glyph-name="Odieresis" unicode="&#xd6;" 
d="M265 704q63 0 107 -14.5t72 -40.5t43.5 -61t22.5 -76t8 -86.5t1 -91.5q0 -95 -20.5 -159t-55.5 -103t-82 -55.5t-101 -16.5t-101.5 18.5t-82.5 59t-55.5 104t-20.5 152.5q0 69 7.5 135.5t34.5 118.5t79.5 84t143.5 32zM266 153q29 0 47.5 12.5t28.5 33t13.5 47t3.5 55.5
q0 21 -3 43t-13 40t-27.5 30t-46.5 12q-27 0 -45 -12.5t-28.5 -31.5t-15 -41.5t-5.5 -43.5t3 -46.5t14 -47t28 -36t46 -14.5zM233 814q14 0 24.5 -12.5t10.5 -30.5t-10.5 -30.5t-24.5 -12.5t-24.5 12.5t-10.5 30.5t10.5 30.5t24.5 12.5zM312 814q15 0 25 -12.5t10 -30.5
t-10 -30.5t-25 -12.5q-14 0 -24.5 12.5t-10.5 30.5t10.5 30.5t24.5 12.5z" />
    <glyph glyph-name="Ugrave" unicode="&#xd9;" 
d="M517 617v-55t0.5 -67t0 -70t0 -65.5t0.5 -53v-31.5q1 -80 -18.5 -133t-54 -84.5t-81.5 -44.5t-102 -13q-71 0 -119 18t-78 50.5t-43.5 78t-16.5 100.5q-2 32 -2.5 81t-1 100t-0.5 95t-1 67q-1 33 14 57t38 38t50.5 16.5t51 -7t39 -32.5t15.5 -61q0 -16 -1 -46.5t-2 -71.5
t-1.5 -90t-0.5 -101q0 -39 13.5 -63t29.5 -27.5t30 17.5t17 73q1 22 1 63t-0.5 87t-1 90t-0.5 74q0 24 16 43.5t40.5 32t53.5 16.5t54 -2.5t42 -25.5t19 -53zM334 763q11 -6 10.5 -16t-18.5 -15q-10 -3 -27 -3t-35 2.5t-35 7t-28 11.5q-20 13 -22.5 33t5 36t21.5 22t28 -10
q31 -35 60.5 -48.5t40.5 -19.5z" />
    <glyph glyph-name="Uacute" unicode="&#xda;" 
d="M517 617v-55t0.5 -67t0 -70t0 -65.5t0.5 -53v-31.5q1 -80 -18.5 -133t-54 -84.5t-81.5 -44.5t-102 -13q-71 0 -119 18t-78 50.5t-43.5 78t-16.5 100.5q-2 32 -2.5 81t-1 100t-0.5 95t-1 67q-1 33 14 57t38 38t50.5 16.5t51 -7t39 -32.5t15.5 -61q0 -16 -1 -46.5t-2 -71.5
t-1.5 -90t-0.5 -101q0 -39 13.5 -63t29.5 -27.5t30 17.5t17 73q1 22 1 63t-0.5 87t-1 90t-0.5 74q0 24 16 43.5t40.5 32t53.5 16.5t54 -2.5t42 -25.5t19 -53zM167 763q11 6 40.5 19.5t60.5 48.5q14 16 28 10t21.5 -22t4.5 -36t-22 -33q-11 -7 -28 -11.5t-35 -7t-35 -2.5
t-27 3q-18 5 -18.5 15t10.5 16z" />
    <glyph glyph-name="Ucircumflex" unicode="&#xdb;" 
d="M517 617v-55t0.5 -67t0 -70t0 -65.5t0.5 -53v-31.5q1 -80 -18.5 -133t-54 -84.5t-81.5 -44.5t-102 -13q-71 0 -119 18t-78 50.5t-43.5 78t-16.5 100.5q-2 32 -2.5 81t-1 100t-0.5 95t-1 67q-1 33 14 57t38 38t50.5 16.5t51 -7t39 -32.5t15.5 -61q0 -16 -1 -46.5t-2 -71.5
t-1.5 -90t-0.5 -101q0 -39 13.5 -63t29.5 -27.5t30 17.5t17 73q1 22 1 63t-0.5 87t-1 90t-0.5 74q0 24 16 43.5t40.5 32t53.5 16.5t54 -2.5t42 -25.5t19 -53zM330 768q4 -12 -3.5 -21.5t-20 -15t-25 -4t-18.5 12.5q-8 14 -10 23t-7 16q-6 -6 -8.5 -19t-4.5 -19
q-3 -9 -15 -11.5t-24.5 0.5t-21.5 11.5t-5 21.5t11 27.5t16.5 26.5t22.5 20.5t29 8.5q15 1 28.5 -7.5t24.5 -20.5t19 -26t12 -24z" />
    <glyph glyph-name="Udieresis" unicode="&#xdc;" 
d="M517 617v-55t0.5 -67t0 -70t0 -65.5t0.5 -53v-31.5q1 -80 -18.5 -133t-54 -84.5t-81.5 -44.5t-102 -13q-71 0 -119 18t-78 50.5t-43.5 78t-16.5 100.5q-2 32 -2.5 81t-1 100t-0.5 95t-1 67q-1 33 14 57t38 38t50.5 16.5t51 -7t39 -32.5t15.5 -61q0 -16 -1 -46.5t-2 -71.5
t-1.5 -90t-0.5 -101q0 -39 13.5 -63t29.5 -27.5t30 17.5t17 73q1 22 1 63t-0.5 87t-1 90t-0.5 74q0 24 16 43.5t40.5 32t53.5 16.5t54 -2.5t42 -25.5t19 -53zM212 814q14 0 24.5 -12.5t10.5 -30.5t-10.5 -30.5t-24.5 -12.5t-24.5 12.5t-10.5 30.5t10.5 30.5t24.5 12.5z
M291 814q15 0 25 -12.5t10 -30.5t-10 -30.5t-25 -12.5q-14 0 -24.5 12.5t-10.5 30.5t10.5 30.5t24.5 12.5z" />
    <glyph glyph-name="Yacute" unicode="&#xdd;" horiz-adv-x="570" 
d="M296 621q0 27 16.5 46t41 28.5t53 10t53.5 -8.5t41.5 -28t17.5 -47v-119q0 -119 -41 -195.5t-108 -109.5v-65q0 -44 -16 -73t-40 -44t-51.5 -16t-52 12t-41 40t-17.5 67q-1 23 -1.5 41t-1.5 34q-40 17 -68.5 45t-46.5 63.5t-26 76.5t-8 83v135q0 36 15 60t37.5 36
t48.5 12.5t48.5 -10.5t37 -34t14.5 -57q-1 -33 0 -50t1 -36q0 -43 14.5 -68t31.5 -27.5t32 19.5t16 74q1 33 0 60t0 45zM165 763q11 6 40.5 19.5t60.5 48.5q14 16 28 10t21.5 -22t4.5 -36t-22 -33q-11 -7 -28 -11.5t-35 -7t-35 -2.5t-27 3q-18 5 -18.5 15t10.5 16z" />
    <glyph glyph-name="Ydieresis" unicode="&#x178;" horiz-adv-x="570" 
d="M296 621q0 27 16.5 46t41 28.5t53 10t53.5 -8.5t41.5 -28t17.5 -47v-119q0 -119 -41 -195.5t-108 -109.5v-65q0 -44 -16 -73t-40 -44t-51.5 -16t-52 12t-41 40t-17.5 67q-1 23 -1.5 41t-1.5 34q-40 17 -68.5 45t-46.5 63.5t-26 76.5t-8 83v135q0 36 15 60t37.5 36
t48.5 12.5t48.5 -10.5t37 -34t14.5 -57q-1 -33 0 -50t1 -36q0 -43 14.5 -68t31.5 -27.5t32 19.5t16 74q1 33 0 60t0 45zM213 814q14 0 24.5 -12.5t10.5 -30.5t-10.5 -30.5t-24.5 -12.5t-24.5 12.5t-10.5 30.5t10.5 30.5t24.5 12.5zM292 814q15 0 25 -12.5t10 -30.5
t-10 -30.5t-25 -12.5q-14 0 -24.5 12.5t-10.5 30.5t10.5 30.5t24.5 12.5z" />
    <glyph glyph-name="agrave" unicode="&#xe0;" horiz-adv-x="573" 
d="M438 421q30 0 47 -8t26 -32t11 -68t1 -117q0 -60 -7 -98.5t-18 -60t-26 -29.5t-32 -8q-32 0 -51 40q-28 -21 -63.5 -30.5t-75.5 -9.5q-52 0 -97.5 9.5t-79 34t-53 66t-20.5 106.5q-1 75 25.5 116.5t65.5 61.5t81.5 24t73.5 4q34 0 67 -8t60 -27q16 34 65 34zM242 118
q14 0 27.5 3t24 10.5t16.5 21t6 33.5q0 19 -7 33t-17.5 23t-24 13t-26.5 4q-10 0 -24 -3t-27 -10.5t-22 -21t-9 -34.5q0 -20 6.5 -33.5t17.5 -22t26.5 -12.5t32.5 -4zM335 477q11 -6 10.5 -16t-18.5 -15q-10 -3 -27 -3t-35 2.5t-35 7t-28 11.5q-20 13 -22.5 33t5 36t21.5 22
t28 -10q31 -35 60.5 -48.5t40.5 -19.5z" />
    <glyph glyph-name="aacute" unicode="&#xe1;" horiz-adv-x="573" 
d="M438 421q30 0 47 -8t26 -32t11 -68t1 -117q0 -60 -7 -98.5t-18 -60t-26 -29.5t-32 -8q-32 0 -51 40q-28 -21 -63.5 -30.5t-75.5 -9.5q-52 0 -97.5 9.5t-79 34t-53 66t-20.5 106.5q-1 75 25.5 116.5t65.5 61.5t81.5 24t73.5 4q34 0 67 -8t60 -27q16 34 65 34zM242 118
q14 0 27.5 3t24 10.5t16.5 21t6 33.5q0 19 -7 33t-17.5 23t-24 13t-26.5 4q-10 0 -24 -3t-27 -10.5t-22 -21t-9 -34.5q0 -20 6.5 -33.5t17.5 -22t26.5 -12.5t32.5 -4zM165 477q11 6 40.5 19.5t60.5 48.5q14 16 28 10t21.5 -22t4.5 -36t-22 -33q-11 -7 -28 -11.5t-35 -7
t-35 -2.5t-27 3q-18 5 -18.5 15t10.5 16z" />
    <glyph glyph-name="acircumflex" unicode="&#xe2;" horiz-adv-x="573" 
d="M438 421q30 0 47 -8t26 -32t11 -68t1 -117q0 -60 -7 -98.5t-18 -60t-26 -29.5t-32 -8q-32 0 -51 40q-28 -21 -63.5 -30.5t-75.5 -9.5q-52 0 -97.5 9.5t-79 34t-53 66t-20.5 106.5q-1 75 25.5 116.5t65.5 61.5t81.5 24t73.5 4q34 0 67 -8t60 -27q16 34 65 34zM242 118
q14 0 27.5 3t24 10.5t16.5 21t6 33.5q0 19 -7 33t-17.5 23t-24 13t-26.5 4q-10 0 -24 -3t-27 -10.5t-22 -21t-9 -34.5q0 -20 6.5 -33.5t17.5 -22t26.5 -12.5t32.5 -4zM330 482q4 -12 -3.5 -21.5t-20 -15t-25 -4t-18.5 12.5q-8 14 -10 23t-7 16q-6 -6 -8.5 -19t-4.5 -19
q-3 -9 -15 -11.5t-24.5 0.5t-21.5 11.5t-5 21.5t11 27.5t16.5 26.5t22.5 20.5t29 8.5q15 1 28.5 -7.5t24.5 -20.5t19 -26t12 -24z" />
    <glyph glyph-name="atilde" unicode="&#xe3;" horiz-adv-x="573" 
d="M438 421q30 0 47 -8t26 -32t11 -68t1 -117q0 -60 -7 -98.5t-18 -60t-26 -29.5t-32 -8q-32 0 -51 40q-28 -21 -63.5 -30.5t-75.5 -9.5q-52 0 -97.5 9.5t-79 34t-53 66t-20.5 106.5q-1 75 25.5 116.5t65.5 61.5t81.5 24t73.5 4q34 0 67 -8t60 -27q16 34 65 34zM242 118
q14 0 27.5 3t24 10.5t16.5 21t6 33.5q0 19 -7 33t-17.5 23t-24 13t-26.5 4q-10 0 -24 -3t-27 -10.5t-22 -21t-9 -34.5q0 -20 6.5 -33.5t17.5 -22t26.5 -12.5t32.5 -4zM284 523q13 6 24.5 -2t17 -22t2 -29.5t-20.5 -24.5q-13 -7 -24.5 -5t-23.5 5.5t-25 5t-28 -5.5
q-15 -8 -25.5 1.5t-14 25.5t1.5 32.5t21 22.5q20 7 31 4.5t19.5 -7t18 -7t26.5 5.5z" />
    <glyph glyph-name="adieresis" unicode="&#xe4;" horiz-adv-x="573" 
d="M438 421q30 0 47 -8t26 -32t11 -68t1 -117q0 -60 -7 -98.5t-18 -60t-26 -29.5t-32 -8q-32 0 -51 40q-28 -21 -63.5 -30.5t-75.5 -9.5q-52 0 -97.5 9.5t-79 34t-53 66t-20.5 106.5q-1 75 25.5 116.5t65.5 61.5t81.5 24t73.5 4q34 0 67 -8t60 -27q16 34 65 34zM242 118
q14 0 27.5 3t24 10.5t16.5 21t6 33.5q0 19 -7 33t-17.5 23t-24 13t-26.5 4q-10 0 -24 -3t-27 -10.5t-22 -21t-9 -34.5q0 -20 6.5 -33.5t17.5 -22t26.5 -12.5t32.5 -4zM211 528q14 0 24.5 -12.5t10.5 -30.5t-10.5 -30.5t-24.5 -12.5t-24.5 12.5t-10.5 30.5t10.5 30.5
t24.5 12.5zM290 528q15 0 25 -12.5t10 -30.5t-10 -30.5t-25 -12.5q-14 0 -24.5 12.5t-10.5 30.5t10.5 30.5t24.5 12.5z" />
    <glyph glyph-name="aring" unicode="&#xe5;" horiz-adv-x="573" 
d="M438 421q30 0 47 -8t26 -32t11 -68t1 -117q0 -60 -7 -98.5t-18 -60t-26 -29.5t-32 -8q-32 0 -51 40q-28 -21 -63.5 -30.5t-75.5 -9.5q-52 0 -97.5 9.5t-79 34t-53 66t-20.5 106.5q-1 75 25.5 116.5t65.5 61.5t81.5 24t73.5 4q34 0 67 -8t60 -27q16 34 65 34zM242 118
q14 0 27.5 3t24 10.5t16.5 21t6 33.5q0 19 -7 33t-17.5 23t-24 13t-26.5 4q-10 0 -24 -3t-27 -10.5t-22 -21t-9 -34.5q0 -20 6.5 -33.5t17.5 -22t26.5 -12.5t32.5 -4zM250 548q33 0 56.5 -15.5t23.5 -37.5t-23.5 -37.5t-56.5 -15.5q-34 0 -57.5 15.5t-23.5 37.5t23.5 37.5
t57.5 15.5zM250 475q8 0 13 3.5t5 8.5t-5 8.5t-13 3.5q-19 0 -19 -12t19 -12z" />
    <glyph glyph-name="egrave" unicode="&#xe8;" horiz-adv-x="571" 
d="M337 224q-3 17 -19.5 28.5t-38.5 16t-45.5 0.5t-41.5 -18h20q26 0 43.5 -17t20.5 -38t-13 -38.5t-57 -18.5h-13t-13 1q9 -12 29 -16.5t42.5 -3.5t42 7t28.5 14q22 21 51 24.5t51.5 -7t33 -32t-2.5 -51.5q-11 -17 -33.5 -31t-52 -24t-61.5 -15t-62 -5q-249 0 -246 216
q1 60 24.5 100t60.5 63.5t83 33t93 9.5q44 0 89 -11t82 -35t61.5 -62.5t26.5 -94.5q0 -17 -12.5 -27.5t-31.5 -15.5t-41.5 -4t-43 7t-35.5 17t-19 28zM336 477q11 -6 10.5 -16t-18.5 -15q-10 -3 -27 -3t-35 2.5t-35 7t-28 11.5q-20 13 -22.5 33t5 36t21.5 22t28 -10
q31 -35 60.5 -48.5t40.5 -19.5z" />
    <glyph glyph-name="eacute" unicode="&#xe9;" horiz-adv-x="571" 
d="M337 224q-3 17 -19.5 28.5t-38.5 16t-45.5 0.5t-41.5 -18h20q26 0 43.5 -17t20.5 -38t-13 -38.5t-57 -18.5h-13t-13 1q9 -12 29 -16.5t42.5 -3.5t42 7t28.5 14q22 21 51 24.5t51.5 -7t33 -32t-2.5 -51.5q-11 -17 -33.5 -31t-52 -24t-61.5 -15t-62 -5q-249 0 -246 216
q1 60 24.5 100t60.5 63.5t83 33t93 9.5q44 0 89 -11t82 -35t61.5 -62.5t26.5 -94.5q0 -17 -12.5 -27.5t-31.5 -15.5t-41.5 -4t-43 7t-35.5 17t-19 28zM167 477q11 6 40.5 19.5t60.5 48.5q14 16 28 10t21.5 -22t4.5 -36t-22 -33q-11 -7 -28 -11.5t-35 -7t-35 -2.5t-27 3
q-18 5 -18.5 15t10.5 16z" />
    <glyph glyph-name="ecircumflex" unicode="&#xea;" horiz-adv-x="571" 
d="M337 224q-3 17 -19.5 28.5t-38.5 16t-45.5 0.5t-41.5 -18h20q26 0 43.5 -17t20.5 -38t-13 -38.5t-57 -18.5h-13t-13 1q9 -12 29 -16.5t42.5 -3.5t42 7t28.5 14q22 21 51 24.5t51.5 -7t33 -32t-2.5 -51.5q-11 -17 -33.5 -31t-52 -24t-61.5 -15t-62 -5q-249 0 -246 216
q1 60 24.5 100t60.5 63.5t83 33t93 9.5q44 0 89 -11t82 -35t61.5 -62.5t26.5 -94.5q0 -17 -12.5 -27.5t-31.5 -15.5t-41.5 -4t-43 7t-35.5 17t-19 28zM330 482q4 -12 -3.5 -21.5t-20 -15t-25 -4t-18.5 12.5q-8 14 -10 23t-7 16q-6 -6 -8.5 -19t-4.5 -19q-3 -9 -15 -11.5
t-24.5 0.5t-21.5 11.5t-5 21.5t11 27.5t16.5 26.5t22.5 20.5t29 8.5q15 1 28.5 -7.5t24.5 -20.5t19 -26t12 -24z" />
    <glyph glyph-name="edieresis" unicode="&#xeb;" horiz-adv-x="571" 
d="M337 224q-3 17 -19.5 28.5t-38.5 16t-45.5 0.5t-41.5 -18h20q26 0 43.5 -17t20.5 -38t-13 -38.5t-57 -18.5h-13t-13 1q9 -12 29 -16.5t42.5 -3.5t42 7t28.5 14q22 21 51 24.5t51.5 -7t33 -32t-2.5 -51.5q-11 -17 -33.5 -31t-52 -24t-61.5 -15t-62 -5q-249 0 -246 216
q1 60 24.5 100t60.5 63.5t83 33t93 9.5q44 0 89 -11t82 -35t61.5 -62.5t26.5 -94.5q0 -17 -12.5 -27.5t-31.5 -15.5t-41.5 -4t-43 7t-35.5 17t-19 28zM211 528q14 0 24.5 -12.5t10.5 -30.5t-10.5 -30.5t-24.5 -12.5t-24.5 12.5t-10.5 30.5t10.5 30.5t24.5 12.5zM290 528
q15 0 25 -12.5t10 -30.5t-10 -30.5t-25 -12.5q-14 0 -24.5 12.5t-10.5 30.5t10.5 30.5t24.5 12.5z" />
    <glyph glyph-name="igrave" unicode="&#xec;" horiz-adv-x="213" 
d="M78 421q29 0 46 -8t26 -32t11 -68t1 -117q0 -60 -7 -98.5t-18 -60t-26 -29.5t-32 -8q-34 0 -54 47.5t-23 147.5q-2 60 -2.5 102.5t6.5 70.5t23.5 40.5t48.5 12.5zM156 477q11 -6 10.5 -16t-18.5 -15q-10 -3 -27 -3t-35 2.5t-35 7t-28 11.5q-20 13 -22.5 33t5 36t21.5 22
t28 -10q31 -35 60.5 -48.5t40.5 -19.5z" />
    <glyph glyph-name="iacute" unicode="&#xed;" horiz-adv-x="213" 
d="M78 421q-32 0 -48.5 -12.5t-23.5 -40.5t-6.5 -70.5t2.5 -102.5q3 -100 23 -147.5t54 -47.5q17 0 32 8t26 29.5t18 60t7 98.5q1 73 -1 117t-11 68t-26 32t-46 8zM8 477q11 6 40.5 19.5t60.5 48.5q14 16 28 10t21.5 -22t4.5 -36t-22 -33q-11 -7 -28 -11.5t-35 -7t-35 -2.5
t-27 3q-18 5 -18.5 15t10.5 16z" />
    <glyph glyph-name="icircumflex" unicode="&#xee;" horiz-adv-x="213" 
d="M78 421q29 0 46 -8t26 -32t11 -68t1 -117q0 -60 -7 -98.5t-18 -60t-26 -29.5t-32 -8q-34 0 -54 47.5t-23 147.5q-2 60 -2.5 102.5t6.5 70.5t23.5 40.5t48.5 12.5zM161 482q4 -12 -3.5 -21.5t-20 -15t-25 -4t-18.5 12.5q-8 14 -10 23t-7 16q-6 -6 -8.5 -19t-4.5 -19
q-3 -9 -15 -11.5t-24.5 0.5t-21.5 11.5t-5 21.5t11 27.5t16.5 26.5t22.5 20.5t29 8.5q15 1 28.5 -7.5t24.5 -20.5t19 -26t12 -24z" />
    <glyph glyph-name="idieresis" unicode="&#xef;" horiz-adv-x="213" 
d="M78 421q29 0 46 -8t26 -32t11 -68t1 -117q0 -60 -7 -98.5t-18 -60t-26 -29.5t-32 -8q-34 0 -54 47.5t-23 147.5q-2 60 -2.5 102.5t6.5 70.5t23.5 40.5t48.5 12.5zM39 528q14 0 24.5 -12.5t10.5 -30.5t-10.5 -30.5t-24.5 -12.5t-24.5 12.5t-10.5 30.5t10.5 30.5t24.5 12.5
zM118 528q15 0 25 -12.5t10 -30.5t-10 -30.5t-25 -12.5q-14 0 -24.5 12.5t-10.5 30.5t10.5 30.5t24.5 12.5z" />
    <glyph glyph-name="ntilde" unicode="&#xf1;" horiz-adv-x="557" 
d="M264 421q79 0 127.5 -24.5t75 -66.5t34.5 -99.5t7 -123.5q-1 -42 -17.5 -66.5t-40.5 -34.5t-52 -6.5t-51.5 17.5t-39 37.5t-13.5 53.5q0 18 1.5 51t-2.5 64.5t-17 55.5t-41 24q-38 1 -55 -29.5t-16 -90.5q0 -25 0.5 -57t-6.5 -59.5t-25 -46.5t-55 -19q-28 0 -44 15
t-24 48t-9.5 86.5t-0.5 131.5q0 10 1.5 33.5t8.5 46.5t21 41t40 18t46.5 -15.5t28.5 -43.5q7 9 16 19.5t22.5 19.5t32.5 14.5t47 5.5zM286 523q13 6 24.5 -2t17 -22t2 -29.5t-20.5 -24.5q-13 -7 -24.5 -5t-23.5 5.5t-25 5t-28 -5.5q-15 -8 -25.5 1.5t-14 25.5t1.5 32.5
t21 22.5q20 7 31 4.5t19.5 -7t18 -7t26.5 5.5z" />
    <glyph glyph-name="ograve" unicode="&#xf2;" horiz-adv-x="559" 
d="M276 422q45 0 87.5 -11.5t75.5 -37.5t53 -67.5t19 -101.5q-1 -58 -19.5 -97t-50 -63t-73.5 -34t-88 -10q-59 0 -109.5 9.5t-88 34t-59.5 66t-23 106.5q-1 50 13 84.5t37 57.5t52.5 36t60.5 19t60.5 7.5t52.5 1.5zM266 118q35 0 60.5 16.5t25.5 51.5q0 39 -27 55.5
t-61 16.5q-13 0 -28 -3t-28 -10.5t-22 -20.5t-10 -34q-1 -35 22 -53.5t68 -18.5zM336 477q11 -6 10.5 -16t-18.5 -15q-10 -3 -27 -3t-35 2.5t-35 7t-28 11.5q-20 13 -22.5 33t5 36t21.5 22t28 -10q31 -35 60.5 -48.5t40.5 -19.5z" />
    <glyph glyph-name="oacute" unicode="&#xf3;" horiz-adv-x="559" 
d="M276 422q45 0 87.5 -11.5t75.5 -37.5t53 -67.5t19 -101.5q-1 -58 -19.5 -97t-50 -63t-73.5 -34t-88 -10q-59 0 -109.5 9.5t-88 34t-59.5 66t-23 106.5q-1 50 13 84.5t37 57.5t52.5 36t60.5 19t60.5 7.5t52.5 1.5zM266 118q35 0 60.5 16.5t25.5 51.5q0 39 -27 55.5
t-61 16.5q-13 0 -28 -3t-28 -10.5t-22 -20.5t-10 -34q-1 -35 22 -53.5t68 -18.5zM166 477q11 6 40.5 19.5t60.5 48.5q14 16 28 10t21.5 -22t4.5 -36t-22 -33q-11 -7 -28 -11.5t-35 -7t-35 -2.5t-27 3q-18 5 -18.5 15t10.5 16z" />
    <glyph glyph-name="ocircumflex" unicode="&#xf4;" horiz-adv-x="559" 
d="M276 422q45 0 87.5 -11.5t75.5 -37.5t53 -67.5t19 -101.5q-1 -58 -19.5 -97t-50 -63t-73.5 -34t-88 -10q-59 0 -109.5 9.5t-88 34t-59.5 66t-23 106.5q-1 50 13 84.5t37 57.5t52.5 36t60.5 19t60.5 7.5t52.5 1.5zM266 118q35 0 60.5 16.5t25.5 51.5q0 39 -27 55.5
t-61 16.5q-13 0 -28 -3t-28 -10.5t-22 -20.5t-10 -34q-1 -35 22 -53.5t68 -18.5zM332 482q4 -12 -3.5 -21.5t-20 -15t-25 -4t-18.5 12.5q-8 14 -10 23t-7 16q-6 -6 -8.5 -19t-4.5 -19q-3 -9 -15 -11.5t-24.5 0.5t-21.5 11.5t-5 21.5t11 27.5t16.5 26.5t22.5 20.5t29 8.5
q15 1 28.5 -7.5t24.5 -20.5t19 -26t12 -24z" />
    <glyph glyph-name="otilde" unicode="&#xf5;" horiz-adv-x="559" 
d="M276 422q45 0 87.5 -11.5t75.5 -37.5t53 -67.5t19 -101.5q-1 -58 -19.5 -97t-50 -63t-73.5 -34t-88 -10q-59 0 -109.5 9.5t-88 34t-59.5 66t-23 106.5q-1 50 13 84.5t37 57.5t52.5 36t60.5 19t60.5 7.5t52.5 1.5zM266 118q35 0 60.5 16.5t25.5 51.5q0 39 -27 55.5
t-61 16.5q-13 0 -28 -3t-28 -10.5t-22 -20.5t-10 -34q-1 -35 22 -53.5t68 -18.5zM286 523q13 6 24.5 -2t17 -22t2 -29.5t-20.5 -24.5q-13 -7 -24.5 -5t-23.5 5.5t-25 5t-28 -5.5q-15 -8 -25.5 1.5t-14 25.5t1.5 32.5t21 22.5q20 7 31 4.5t19.5 -7t18 -7t26.5 5.5z" />
    <glyph glyph-name="odieresis" unicode="&#xf6;" horiz-adv-x="559" 
d="M276 422q45 0 87.5 -11.5t75.5 -37.5t53 -67.5t19 -101.5q-1 -58 -19.5 -97t-50 -63t-73.5 -34t-88 -10q-59 0 -109.5 9.5t-88 34t-59.5 66t-23 106.5q-1 50 13 84.5t37 57.5t52.5 36t60.5 19t60.5 7.5t52.5 1.5zM266 118q35 0 60.5 16.5t25.5 51.5q0 39 -27 55.5
t-61 16.5q-13 0 -28 -3t-28 -10.5t-22 -20.5t-10 -34q-1 -35 22 -53.5t68 -18.5zM213 528q14 0 24.5 -12.5t10.5 -30.5t-10.5 -30.5t-24.5 -12.5t-24.5 12.5t-10.5 30.5t10.5 30.5t24.5 12.5zM292 528q15 0 25 -12.5t10 -30.5t-10 -30.5t-25 -12.5q-14 0 -24.5 12.5
t-10.5 30.5t10.5 30.5t24.5 12.5z" />
    <glyph glyph-name="ugrave" unicode="&#xf9;" horiz-adv-x="557" 
d="M431 421q28 0 43.5 -15t23.5 -48.5t9.5 -87t0.5 -131.5q0 -11 -1.5 -34t-8 -46t-21 -41t-40.5 -18t-42 15.5t-24 43.5q-14 -28 -42 -43.5t-84 -15.5q-80 0 -128.5 24.5t-75 66.5t-35 99.5t-6.5 123.5q1 42 17.5 66.5t41 34.5t52.5 6.5t51.5 -17.5t38.5 -37.5t14 -53.5
q0 -18 -1.5 -48t2.5 -59t17 -50.5t41 -21.5q38 -1 56 26.5t19 77.5q0 25 -1 57t5 60t23.5 47t54.5 19zM365 477q11 -6 10.5 -16t-18.5 -15q-10 -3 -27 -3t-35 2.5t-35 7t-28 11.5q-20 13 -22.5 33t5 36t21.5 22t28 -10q31 -35 60.5 -48.5t40.5 -19.5z" />
    <glyph glyph-name="uacute" unicode="&#xfa;" horiz-adv-x="557" 
d="M431 421q28 0 43.5 -15t23.5 -48.5t9.5 -87t0.5 -131.5q0 -11 -1.5 -34t-8 -46t-21 -41t-40.5 -18t-42 15.5t-24 43.5q-14 -28 -42 -43.5t-84 -15.5q-80 0 -128.5 24.5t-75 66.5t-35 99.5t-6.5 123.5q1 42 17.5 66.5t41 34.5t52.5 6.5t51.5 -17.5t38.5 -37.5t14 -53.5
q0 -18 -1.5 -48t2.5 -59t17 -50.5t41 -21.5q38 -1 56 26.5t19 77.5q0 25 -1 57t5 60t23.5 47t54.5 19zM198 477q11 6 40.5 19.5t60.5 48.5q14 16 28 10t21.5 -22t4.5 -36t-22 -33q-11 -7 -28 -11.5t-35 -7t-35 -2.5t-27 3q-18 5 -18.5 15t10.5 16z" />
    <glyph glyph-name="ucircumflex" unicode="&#xfb;" horiz-adv-x="557" 
d="M431 421q28 0 43.5 -15t23.5 -48.5t9.5 -87t0.5 -131.5q0 -11 -1.5 -34t-8 -46t-21 -41t-40.5 -18t-42 15.5t-24 43.5q-14 -28 -42 -43.5t-84 -15.5q-80 0 -128.5 24.5t-75 66.5t-35 99.5t-6.5 123.5q1 42 17.5 66.5t41 34.5t52.5 6.5t51.5 -17.5t38.5 -37.5t14 -53.5
q0 -18 -1.5 -48t2.5 -59t17 -50.5t41 -21.5q38 -1 56 26.5t19 77.5q0 25 -1 57t5 60t23.5 47t54.5 19zM366 482q4 -12 -3.5 -21.5t-20 -15t-25 -4t-18.5 12.5q-8 14 -10 23t-7 16q-6 -6 -8.5 -19t-4.5 -19q-3 -9 -15 -11.5t-24.5 0.5t-21.5 11.5t-5 21.5t11 27.5t16.5 26.5
t22.5 20.5t29 8.5q15 1 28.5 -7.5t24.5 -20.5t19 -26t12 -24z" />
    <glyph glyph-name="udieresis" unicode="&#xfc;" horiz-adv-x="557" 
d="M431 421q28 0 43.5 -15t23.5 -48.5t9.5 -87t0.5 -131.5q0 -11 -1.5 -34t-8 -46t-21 -41t-40.5 -18t-42 15.5t-24 43.5q-14 -28 -42 -43.5t-84 -15.5q-80 0 -128.5 24.5t-75 66.5t-35 99.5t-6.5 123.5q1 42 17.5 66.5t41 34.5t52.5 6.5t51.5 -17.5t38.5 -37.5t14 -53.5
q0 -18 -1.5 -48t2.5 -59t17 -50.5t41 -21.5q38 -1 56 26.5t19 77.5q0 25 -1 57t5 60t23.5 47t54.5 19zM243 528q14 0 24.5 -12.5t10.5 -30.5t-10.5 -30.5t-24.5 -12.5t-24.5 12.5t-10.5 30.5t10.5 30.5t24.5 12.5zM322 528q15 0 25 -12.5t10 -30.5t-10 -30.5t-25 -12.5
q-14 0 -24.5 12.5t-10.5 30.5t10.5 30.5t24.5 12.5z" />
    <glyph glyph-name="yacute" unicode="&#xfd;" horiz-adv-x="555" 
d="M431 421q28 0 43.5 -15t23.5 -48t9.5 -86.5t0.5 -131.5v-32t-0.5 -43.5t-0.5 -40.5v-22q-5 -76 -34 -113.5t-74.5 -52.5t-104 -14t-121.5 2q-27 0 -44 13t-25 31t-7 39.5t11 39t29 29t47 10.5q30 -2 58.5 -2t51 3t37 11t17.5 23q-13 -9 -44 -15t-70 -6q-79 -2 -126 22.5
t-71.5 67.5t-31.5 101t-5 124q1 42 17.5 66.5t41 34.5t52.5 6.5t51.5 -17.5t38.5 -37.5t14 -53.5q0 -18 -1.5 -48.5t2.5 -59t17 -50t41 -21.5q38 -1 56 26t19 78q0 25 -1 57t5 59.5t23.5 46.5t54.5 19zM201 477q11 6 40.5 19.5t60.5 48.5q14 16 28 10t21.5 -22t4.5 -36
t-22 -33q-11 -7 -28 -11.5t-35 -7t-35 -2.5t-27 3q-18 5 -18.5 15t10.5 16z" />
    <glyph glyph-name="ydieresis" unicode="&#xff;" horiz-adv-x="555" 
d="M431 421q28 0 43.5 -15t23.5 -48t9.5 -86.5t0.5 -131.5v-32t-0.5 -43.5t-0.5 -40.5v-22q-5 -76 -34 -113.5t-74.5 -52.5t-104 -14t-121.5 2q-27 0 -44 13t-25 31t-7 39.5t11 39t29 29t47 10.5q30 -2 58.5 -2t51 3t37 11t17.5 23q-13 -9 -44 -15t-70 -6q-79 -2 -126 22.5
t-71.5 67.5t-31.5 101t-5 124q1 42 17.5 66.5t41 34.5t52.5 6.5t51.5 -17.5t38.5 -37.5t14 -53.5q0 -18 -1.5 -48.5t2.5 -59t17 -50t41 -21.5q38 -1 56 26t19 78q0 25 -1 57t5 59.5t23.5 46.5t54.5 19zM244 528q14 0 24.5 -12.5t10.5 -30.5t-10.5 -30.5t-24.5 -12.5
t-24.5 12.5t-10.5 30.5t10.5 30.5t24.5 12.5zM323 528q15 0 25 -12.5t10 -30.5t-10 -30.5t-25 -12.5q-14 0 -24.5 12.5t-10.5 30.5t10.5 30.5t24.5 12.5z" />
    <glyph glyph-name="C" unicode="C" horiz-adv-x="567" 
d="M517 371q-3 -26 -17.5 -41.5t-35 -23.5t-43.5 -8.5t-42 5t-31.5 16t-11.5 24.5q4 80 -64 80q-26 0 -41 -12t-23.5 -32t-11 -47.5t-2.5 -58.5q0 -67 22 -98.5t48.5 -34.5t49.5 19.5t25 64.5q1 15 14 24.5t31.5 12.5t39.5 1t39 -10t30 -21.5t11 -31.5q-2 -28 -15 -63.5
t-42 -66t-75 -51t-113 -18.5q-64 2 -114 29t-83 75t-49 115t-12 150q4 95 30.5 161.5t66 107t88.5 56.5t98.5 10.5t95 -31t79 -68.5t50 -102t8.5 -132z" />
    <glyph glyph-name="A" unicode="A" horiz-adv-x="565" 
d="M518 97q2 -32 -12 -53t-36 -31t-48.5 -10.5t-49 8.5t-37.5 27t-14 45q0 2 -0.5 11.5t-0.5 26.5q-23 -2 -47 -3.5t-45 0.5v-10q0 -37 -16 -60.5t-40.5 -35t-53.5 -12t-53.5 8t-41.5 26t-17 41.5q-2 27 -3.5 56.5t-2 57.5t-0.5 51v36q-1 120 14.5 201t48 130.5t80.5 72
t113 24.5q58 2 102.5 -18t75.5 -58t49.5 -93t26.5 -122q4 -31 5 -76t1.5 -91t0.5 -87t1 -63zM222 272q23 -2 49 -3t46 -2q0 10 -0.5 20.5t-0.5 21.5q0 55 -15 84t-32.5 29t-32 -31.5t-14.5 -97.5v-21z" />
    <glyph glyph-name="B" unicode="B" horiz-adv-x="575" 
d="M523 202q1 -56 -17 -95.5t-64.5 -64t-128 -34.5t-207.5 -8q-14 0 -31.5 9t-33.5 25.5t-26.5 42t-11.5 58.5q0 19 -0.5 55t-1 81t-1 94.5t-0.5 94.5v81.5t1 56.5q1 25 5.5 44t18 32t39 20.5t68.5 9.5q29 1 69 1.5t83 -5t85.5 -18t76 -36t54.5 -61t21 -92.5q0 -63 -12 -111
t-46 -80q27 -15 43 -39.5t17 -60.5zM221 138q45 1 67.5 9.5t24.5 17.5t-15.5 16.5t-51.5 7.5h-25v-51zM221 335q50 3 74.5 17.5t24.5 30t-22.5 28t-66.5 12.5q-6 0 -10 -1v-87z" />
    </font>
</defs>
</svg>
